<svg version="1.1" viewBox="0.0 0.0 600.0 371.0" fill="none" stroke="none" stroke-linecap="square" stroke-miterlimit="10" width="600" height="371" xmlns:xlink="http://www.w3.org/1999/xlink" xmlns="http://www.w3.org/2000/svg"><path fill="#ffffff" d="M0 0L600.0 0L600.0 371.0L0 371.0L0 0Z" fill-rule="nonzero"/><path stroke="#333333" stroke-width="1.0" stroke-linecap="butt" d="M48.5 292.5L581.5 292.5" fill-rule="nonzero"/><path stroke="#cccccc" stroke-width="1.0" stroke-linecap="butt" d="M48.5 231.5L581.5 231.5" fill-rule="nonzero"/><path stroke="#cccccc" stroke-width="1.0" stroke-linecap="butt" d="M48.5 171.5L581.5 171.5" fill-rule="nonzero"/><path stroke="#cccccc" stroke-width="1.0" stroke-linecap="butt" d="M48.5 111.5L581.5 111.5" fill-rule="nonzero"/><path stroke="#cccccc" stroke-width="1.0" stroke-linecap="butt" d="M48.5 51.5L581.5 51.5" fill-rule="nonzero"/><clipPath id="id_0"><path d="M48.55 51.916668L581.45 51.916668L581.45 292.00278L48.55 292.00278L48.55 51.916668Z" clip-rule="nonzero"/></clipPath><path stroke="#000000" stroke-width="2.0" stroke-linecap="butt" stroke-opacity="0.0" clip-path="url(#id_0)" d="M77.0 292.0L65.0 292.0L65.0 131.0C65.0 129.89543 65.89543 129.0 67.0 129.0L75.0 129.0C76.10457 129.0 77.0 129.89543 77.0 131.0Z" fill-rule="nonzero"/><path fill="#4285f4" clip-path="url(#id_0)" d="M77.0 292.0L65.0 292.0L65.0 131.0C65.0 129.89543 65.89543 129.0 67.0 129.0L75.0 129.0C76.10457 129.0 77.0 129.89543 77.0 131.0Z" fill-rule="nonzero"/><path stroke="#000000" stroke-width="2.0" stroke-linecap="butt" stroke-opacity="0.0" clip-path="url(#id_0)" d="M120.0 292.0L108.0 292.0L108.0 215.0C108.0 213.89543 108.89543 213.0 110.0 213.0L118.0 213.0C119.10457 213.0 120.0 213.89543 120.0 215.0Z" fill-rule="nonzero"/><path fill="#4285f4" clip-path="url(#id_0)" d="M120.0 292.0L108.0 292.0L108.0 215.0C108.0 213.89543 108.89543 213.0 110.0 213.0L118.0 213.0C119.10457 213.0 120.0 213.89543 120.0 215.0Z" fill-rule="nonzero"/><path stroke="#000000" stroke-width="2.0" stroke-linecap="butt" stroke-opacity="0.0" clip-path="url(#id_0)" d="M163.0 292.0L151.0 292.0L151.0 71.0C151.0 69.89543 151.89543 69.0 153.0 69.0L161.0 69.0C162.10457 69.0 163.0 69.89543 163.0 71.0Z" fill-rule="nonzero"/><path fill="#4285f4" clip-path="url(#id_0)" d="M163.0 292.0L151.0 292.0L151.0 71.0C151.0 69.89543 151.89543 69.0 153.0 69.0L161.0 69.0C162.10457 69.0 163.0 69.89543 163.0 71.0Z" fill-rule="nonzero"/><path stroke="#000000" stroke-width="2.0" stroke-linecap="butt" stroke-opacity="0.0" clip-path="url(#id_0)" d="M206.0 292.0L194.0 292.0L194.0 145.0C194.0 143.89543 194.89543 143.0 196.0 143.0L204.0 143.0C205.10457 143.0 206.0 143.89543 206.0 145.0Z" fill-rule="nonzero"/><path fill="#4285f4" clip-path="url(#id_0)" d="M206.0 292.0L194.0 292.0L194.0 145.0C194.0 143.89543 194.89543 143.0 196.0 143.0L204.0 143.0C205.10457 143.0 206.0 143.89543 206.0 145.0Z" fill-rule="nonzero"/><path stroke="#000000" stroke-width="2.0" stroke-linecap="butt" stroke-opacity="0.0" clip-path="url(#id_0)" d="M249.0 292.0L237.0 292.0L237.0 66.0C237.0 64.89543 237.89543 64.0 239.0 64.0L247.0 64.0C248.10457 64.0 249.0 64.89543 249.0 66.0Z" fill-rule="nonzero"/><path fill="#4285f4" clip-path="url(#id_0)" d="M249.0 292.0L237.0 292.0L237.0 66.0C237.0 64.89543 237.89543 64.0 239.0 64.0L247.0 64.0C248.10457 64.0 249.0 64.89543 249.0 66.0Z" fill-rule="nonzero"/><path stroke="#000000" stroke-width="2.0" stroke-linecap="butt" stroke-opacity="0.0" clip-path="url(#id_0)" d="M292.0 292.0L280.0 292.0L280.0 83.0C280.0 81.89543 280.89542 81.0 282.0 81.0L290.0 81.0C291.10458 81.0 292.0 81.89543 292.0 83.0Z" fill-rule="nonzero"/><path fill="#4285f4" clip-path="url(#id_0)" d="M292.0 292.0L280.0 292.0L280.0 83.0C280.0 81.89543 280.89542 81.0 282.0 81.0L290.0 81.0C291.10458 81.0 292.0 81.89543 292.0 83.0Z" fill-rule="nonzero"/><path stroke="#000000" stroke-width="2.0" stroke-linecap="butt" stroke-opacity="0.0" clip-path="url(#id_0)" d="M336.0 292.0L324.0 292.0L324.0 112.0C324.0 110.89543 324.89542 110.0 326.0 110.0L334.0 110.0C335.10458 110.0 336.0 110.89543 336.0 112.0Z" fill-rule="nonzero"/><path fill="#4285f4" clip-path="url(#id_0)" d="M336.0 292.0L324.0 292.0L324.0 112.0C324.0 110.89543 324.89542 110.0 326.0 110.0L334.0 110.0C335.10458 110.0 336.0 110.89543 336.0 112.0Z" fill-rule="nonzero"/><path stroke="#000000" stroke-width="2.0" stroke-linecap="butt" stroke-opacity="0.0" clip-path="url(#id_0)" d="M379.0 292.0L367.0 292.0L367.0 155.0C367.0 153.89543 367.89542 153.0 369.0 153.0L377.0 153.0C378.10458 153.0 379.0 153.89543 379.0 155.0Z" fill-rule="nonzero"/><path fill="#4285f4" clip-path="url(#id_0)" d="M379.0 292.0L367.0 292.0L367.0 155.0C367.0 153.89543 367.89542 153.0 369.0 153.0L377.0 153.0C378.10458 153.0 379.0 153.89543 379.0 155.0Z" fill-rule="nonzero"/><path stroke="#000000" stroke-width="2.0" stroke-linecap="butt" stroke-opacity="0.0" clip-path="url(#id_0)" d="M422.0 292.0L410.0 292.0L410.0 286.0C410.0 284.89542 410.89542 284.0 412.0 284.0L420.0 284.0C421.10458 284.0 422.0 284.89542 422.0 286.0Z" fill-rule="nonzero"/><path fill="#4285f4" clip-path="url(#id_0)" d="M422.0 292.0L410.0 292.0L410.0 286.0C410.0 284.89542 410.89542 284.0 412.0 284.0L420.0 284.0C421.10458 284.0 422.0 284.89542 422.0 286.0Z" fill-rule="nonzero"/><path stroke="#000000" stroke-width="2.0" stroke-linecap="butt" stroke-opacity="0.0" clip-path="url(#id_0)" d="M465.0 292.0L453.0 292.0L453.0 131.0C453.0 129.89543 453.89542 129.0 455.0 129.0L463.0 129.0C464.10458 129.0 465.0 129.89543 465.0 131.0Z" fill-rule="nonzero"/><path fill="#4285f4" clip-path="url(#id_0)" d="M465.0 292.0L453.0 292.0L453.0 131.0C453.0 129.89543 453.89542 129.0 455.0 129.0L463.0 129.0C464.10458 129.0 465.0 129.89543 465.0 131.0Z" fill-rule="nonzero"/><path stroke="#000000" stroke-width="2.0" stroke-linecap="butt" stroke-opacity="0.0" clip-path="url(#id_0)" d="M508.0 292.0L496.0 292.0L496.0 292.0C496.0 292.0 496.0 292.0 496.0 292.0L508.0 292.0C508.0 292.0 508.0 292.0 508.0 292.0Z" fill-rule="nonzero"/><path fill="#4285f4" clip-path="url(#id_0)" d="M508.0 292.0L496.0 292.0L496.0 292.0C496.0 292.0 496.0 292.0 496.0 292.0L508.0 292.0C508.0 292.0 508.0 292.0 508.0 292.0Z" fill-rule="nonzero"/><path stroke="#000000" stroke-width="2.0" stroke-linecap="butt" stroke-opacity="0.0" clip-path="url(#id_0)" d="M551.0 292.0L539.0 292.0L539.0 153.0C539.0 151.89543 539.89545 151.0 541.0 151.0L549.0 151.0C550.10455 151.0 551.0 151.89543 551.0 153.0Z" fill-rule="nonzero"/><path fill="#4285f4" clip-path="url(#id_0)" d="M551.0 292.0L539.0 292.0L539.0 153.0C539.0 151.89543 539.89545 151.0 541.0 151.0L549.0 151.0C550.10455 151.0 551.0 151.89543 551.0 153.0Z" fill-rule="nonzero"/><path stroke="#000000" stroke-width="2.0" stroke-linecap="butt" stroke-opacity="0.0" clip-path="url(#id_0)" d="M91.0 292.0L79.0 292.0L79.0 188.0C79.0 186.89543 79.89543 186.0 81.0 186.0L89.0 186.0C90.10457 186.0 91.0 186.89543 91.0 188.0Z" fill-rule="nonzero"/><path fill="#ea4335" clip-path="url(#id_0)" d="M91.0 292.0L79.0 292.0L79.0 188.0C79.0 186.89543 79.89543 186.0 81.0 186.0L89.0 186.0C90.10457 186.0 91.0 186.89543 91.0 188.0Z" fill-rule="nonzero"/><path stroke="#000000" stroke-width="2.0" stroke-linecap="butt" stroke-opacity="0.0" clip-path="url(#id_0)" d="M134.0 292.0L122.0 292.0L122.0 215.0C122.0 213.89543 122.89543 213.0 124.0 213.0L132.0 213.0C133.10457 213.0 134.0 213.89543 134.0 215.0Z" fill-rule="nonzero"/><path fill="#ea4335" clip-path="url(#id_0)" d="M134.0 292.0L122.0 292.0L122.0 215.0C122.0 213.89543 122.89543 213.0 124.0 213.0L132.0 213.0C133.10457 213.0 134.0 213.89543 134.0 215.0Z" fill-rule="nonzero"/><path stroke="#000000" stroke-width="2.0" stroke-linecap="butt" stroke-opacity="0.0" clip-path="url(#id_0)" d="M177.0 292.0L165.0 292.0L165.0 80.0C165.0 78.89543 165.89543 78.0 167.0 78.0L175.0 78.0C176.10457 78.0 177.0 78.89543 177.0 80.0Z" fill-rule="nonzero"/><path fill="#ea4335" clip-path="url(#id_0)" d="M177.0 292.0L165.0 292.0L165.0 80.0C165.0 78.89543 165.89543 78.0 167.0 78.0L175.0 78.0C176.10457 78.0 177.0 78.89543 177.0 80.0Z" fill-rule="nonzero"/><path stroke="#000000" stroke-width="2.0" stroke-linecap="butt" stroke-opacity="0.0" clip-path="url(#id_0)" d="M220.0 292.0L208.0 292.0L208.0 222.0C208.0 220.89543 208.89543 220.0 210.0 220.0L218.0 220.0C219.10457 220.0 220.0 220.89543 220.0 222.0Z" fill-rule="nonzero"/><path fill="#ea4335" clip-path="url(#id_0)" d="M220.0 292.0L208.0 292.0L208.0 222.0C208.0 220.89543 208.89543 220.0 210.0 220.0L218.0 220.0C219.10457 220.0 220.0 220.89543 220.0 222.0Z" fill-rule="nonzero"/><path stroke="#000000" stroke-width="2.0" stroke-linecap="butt" stroke-opacity="0.0" clip-path="url(#id_0)" d="M263.0 292.0L251.0 292.0L251.0 78.0C251.0 76.89543 251.89543 76.0 253.0 76.0L261.0 76.0C262.10458 76.0 263.0 76.89543 263.0 78.0Z" fill-rule="nonzero"/><path fill="#ea4335" clip-path="url(#id_0)" d="M263.0 292.0L251.0 292.0L251.0 78.0C251.0 76.89543 251.89543 76.0 253.0 76.0L261.0 76.0C262.10458 76.0 263.0 76.89543 263.0 78.0Z" fill-rule="nonzero"/><path stroke="#000000" stroke-width="2.0" stroke-linecap="butt" stroke-opacity="0.0" clip-path="url(#id_0)" d="M306.0 292.0L294.0 292.0L294.0 97.0C294.0 95.89543 294.89542 95.0 296.0 95.0L304.0 95.0C305.10458 95.0 306.0 95.89543 306.0 97.0Z" fill-rule="nonzero"/><path fill="#ea4335" clip-path="url(#id_0)" d="M306.0 292.0L294.0 292.0L294.0 97.0C294.0 95.89543 294.89542 95.0 296.0 95.0L304.0 95.0C305.10458 95.0 306.0 95.89543 306.0 97.0Z" fill-rule="nonzero"/><path stroke="#000000" stroke-width="2.0" stroke-linecap="butt" stroke-opacity="0.0" clip-path="url(#id_0)" d="M350.0 292.0L338.0 292.0L338.0 145.0C338.0 143.89543 338.89542 143.0 340.0 143.0L348.0 143.0C349.10458 143.0 350.0 143.89543 350.0 145.0Z" fill-rule="nonzero"/><path fill="#ea4335" clip-path="url(#id_0)" d="M350.0 292.0L338.0 292.0L338.0 145.0C338.0 143.89543 338.89542 143.0 340.0 143.0L348.0 143.0C349.10458 143.0 350.0 143.89543 350.0 145.0Z" fill-rule="nonzero"/><path stroke="#000000" stroke-width="2.0" stroke-linecap="butt" stroke-opacity="0.0" clip-path="url(#id_0)" d="M393.0 292.0L381.0 292.0L381.0 212.0C381.0 210.89543 381.89542 210.0 383.0 210.0L391.0 210.0C392.10458 210.0 393.0 210.89543 393.0 212.0Z" fill-rule="nonzero"/><path fill="#ea4335" clip-path="url(#id_0)" d="M393.0 292.0L381.0 292.0L381.0 212.0C381.0 210.89543 381.89542 210.0 383.0 210.0L391.0 210.0C392.10458 210.0 393.0 210.89543 393.0 212.0Z" fill-rule="nonzero"/><path stroke="#000000" stroke-width="2.0" stroke-linecap="butt" stroke-opacity="0.0" clip-path="url(#id_0)" d="M436.0 292.0L424.0 292.0L424.0 288.0C424.0 286.89542 424.89542 286.0 426.0 286.0L434.0 286.0C435.10458 286.0 436.0 286.89542 436.0 288.0Z" fill-rule="nonzero"/><path fill="#ea4335" clip-path="url(#id_0)" d="M436.0 292.0L424.0 292.0L424.0 288.0C424.0 286.89542 424.89542 286.0 426.0 286.0L434.0 286.0C435.10458 286.0 436.0 286.89542 436.0 288.0Z" fill-rule="nonzero"/><path stroke="#000000" stroke-width="2.0" stroke-linecap="butt" stroke-opacity="0.0" clip-path="url(#id_0)" d="M479.0 292.0L467.0 292.0L467.0 162.0C467.0 160.89543 467.89542 160.0 469.0 160.0L477.0 160.0C478.10458 160.0 479.0 160.89543 479.0 162.0Z" fill-rule="nonzero"/><path fill="#ea4335" clip-path="url(#id_0)" d="M479.0 292.0L467.0 292.0L467.0 162.0C467.0 160.89543 467.89542 160.0 469.0 160.0L477.0 160.0C478.10458 160.0 479.0 160.89543 479.0 162.0Z" fill-rule="nonzero"/><path stroke="#000000" stroke-width="2.0" stroke-linecap="butt" stroke-opacity="0.0" clip-path="url(#id_0)" d="M522.0 292.0L510.0 292.0L510.0 291.0C510.0 290.44772 510.44772 290.0 511.0 290.0L521.0 290.0C521.5523 290.0 522.0 290.44772 522.0 291.0Z" fill-rule="nonzero"/><path fill="#ea4335" clip-path="url(#id_0)" d="M522.0 292.0L510.0 292.0L510.0 291.0C510.0 290.44772 510.44772 290.0 511.0 290.0L521.0 290.0C521.5523 290.0 522.0 290.44772 522.0 291.0Z" fill-rule="nonzero"/><path stroke="#000000" stroke-width="2.0" stroke-linecap="butt" stroke-opacity="0.0" clip-path="url(#id_0)" d="M565.0 292.0L553.0 292.0L553.0 180.0C553.0 178.89543 553.89545 178.0 555.0 178.0L563.0 178.0C564.10455 178.0 565.0 178.89543 565.0 180.0Z" fill-rule="nonzero"/><path fill="#ea4335" clip-path="url(#id_0)" d="M565.0 292.0L553.0 292.0L553.0 180.0C553.0 178.89543 553.89545 178.0 555.0 178.0L563.0 178.0C564.10455 178.0 565.0 178.89543 565.0 180.0Z" fill-rule="nonzero"/><path fill="#000000" d="M19.05 291.7684Q19.05 290.23715 19.3625 289.31528Q19.675 288.37778 20.284374 287.87778Q20.909374 287.37778 21.846874 287.37778Q22.534374 287.37778 23.05 287.65903Q23.58125 287.94028 23.925 288.47153Q24.26875 288.98715 24.45625 289.73715Q24.64375 290.48715 24.64375 291.7684Q24.64375 293.28403 24.33125 294.2059Q24.034374 295.12778 23.409374 295.6434Q22.8 296.1434 21.846874 296.1434Q20.6125 296.1434 19.89375 295.25278Q19.05 294.19028 19.05 291.7684ZM20.128124 291.7684Q20.128124 293.87778 20.628124 294.5809Q21.128124 295.28403 21.846874 295.28403Q22.58125 295.28403 23.065624 294.5809Q23.565624 293.87778 23.565624 291.7684Q23.565624 289.6434 23.065624 288.9559Q22.58125 288.25278 21.83125 288.25278Q21.1125 288.25278 20.675 288.86215Q20.128124 289.6434 20.128124 291.7684ZM26.64375 296.00278L26.64375 294.79965L27.846874 294.79965L27.846874 296.00278L26.64375 296.00278ZM29.05 291.7684Q29.05 290.23715 29.3625 289.31528Q29.675 288.37778 30.284374 287.87778Q30.909374 287.37778 31.846874 287.37778Q32.534374 287.37778 33.05 287.65903Q33.58125 287.94028 33.925 288.47153Q34.26875 288.98715 34.45625 289.73715Q34.64375 290.48715 34.64375 291.7684Q34.64375 293.28403 34.33125 294.2059Q34.034374 295.12778 33.409374 295.6434Q32.8 296.1434 31.846874 296.1434Q30.6125 296.1434 29.89375 295.25278Q29.05 294.19028 29.05 291.7684ZM30.128124 291.7684Q30.128124 293.87778 30.628124 294.5809Q31.128124 295.28403 31.846874 295.28403Q32.58125 295.28403 33.065624 294.5809Q33.565624 293.87778 33.565624 291.7684Q33.565624 289.6434 33.065624 288.9559Q32.58125 288.25278 31.83125 288.25278Q31.1125 288.25278 30.675 288.86215Q30.128124 289.6434 30.128124 291.7684ZM36.05 291.7684Q36.05 290.23715 36.3625 289.31528Q36.675 288.37778 37.284374 287.87778Q37.909374 287.37778 38.846874 287.37778Q39.534374 287.37778 40.05 287.65903Q40.58125 287.94028 40.925 288.47153Q41.26875 288.98715 41.45625 289.73715Q41.64375 290.48715 41.64375 291.7684Q41.64375 293.28403 41.33125 294.2059Q41.034374 295.12778 40.409374 295.6434Q39.8 296.1434 38.846874 296.1434Q37.6125 296.1434 36.89375 295.25278Q36.05 294.19028 36.05 291.7684ZM37.128124 291.7684Q37.128124 293.87778 37.628124 294.5809Q38.128124 295.28403 38.846874 295.28403Q39.58125 295.28403 40.065624 294.5809Q40.565624 293.87778 40.565624 291.7684Q40.565624 289.6434 40.065624 288.9559Q39.58125 288.25278 38.83125 288.25278Q38.1125 288.25278 37.675 288.86215Q37.128124 289.6434 37.128124 291.7684Z" fill-rule="nonzero"/><path fill="#000000" d="M19.05 231.74687Q19.05 230.21562 19.3625 229.29375Q19.675 228.35625 20.284374 227.85625Q20.909374 227.35625 21.846874 227.35625Q22.534374 227.35625 23.05 227.6375Q23.58125 227.91875 23.925 228.45Q24.26875 228.96562 24.45625 229.71562Q24.64375 230.46562 24.64375 231.74687Q24.64375 233.2625 24.33125 234.18437Q24.034374 235.10625 23.409374 235.62187Q22.8 236.12187 21.846874 236.12187Q20.6125 236.12187 19.89375 235.23125Q19.05 234.16875 19.05 231.74687ZM20.128124 231.74687Q20.128124 233.85625 20.628124 234.55937Q21.128124 235.2625 21.846874 235.2625Q22.58125 235.2625 23.065624 234.55937Q23.565624 233.85625 23.565624 231.74687Q23.565624 229.62187 23.065624 228.93437Q22.58125 228.23125 21.83125 228.23125Q21.1125 228.23125 20.675 228.84062Q20.128124 229.62187 20.128124 231.74687ZM26.64375 235.98125L26.64375 234.77812L27.846874 234.77812L27.846874 235.98125L26.64375 235.98125ZM34.596874 234.96562L34.596874 235.98125L28.909374 235.98125Q28.909374 235.60625 29.034374 235.24687Q29.253124 234.66875 29.721874 234.10625Q30.20625 233.54375 31.1125 232.80937Q32.51875 231.65312 33.003124 230.98125Q33.503124 230.30937 33.503124 229.71562Q33.503124 229.09062 33.05 228.66875Q32.596874 228.23125 31.878124 228.23125Q31.1125 228.23125 30.659374 228.68437Q30.20625 229.1375 30.190624 229.95L29.1125 229.84062Q29.221874 228.62187 29.940624 227.99687Q30.675 227.35625 31.909374 227.35625Q33.14375 227.35625 33.8625 228.04375Q34.58125 228.73125 34.58125 229.74687Q34.58125 230.2625 34.3625 230.7625Q34.159374 231.24687 33.659374 231.80937Q33.175 232.35625 32.05 233.30937Q31.096874 234.10625 30.815624 234.40312Q30.55 234.68437 30.378124 234.96562L34.596874 234.96562ZM36.05 233.73125L37.159374 233.6375Q37.284374 234.45 37.721874 234.85625Q38.175 235.2625 38.815624 235.2625Q39.565624 235.2625 40.096874 234.68437Q40.628124 234.10625 40.628124 233.16875Q40.628124 232.2625 40.1125 231.74687Q39.6125 231.21562 38.784374 231.21562Q38.284374 231.21562 37.8625 231.45Q37.45625 231.68437 37.221874 232.04375L36.2375 231.91875L37.065624 227.5125L41.346874 227.5125L41.346874 228.5125L37.909374 228.5125L37.45625 230.825Q38.221874 230.27812 39.065624 230.27812Q40.190624 230.27812 40.95625 231.05937Q41.7375 231.84062 41.7375 233.075Q41.7375 234.23125 41.065624 235.09062Q40.2375 236.12187 38.815624 236.12187Q37.64375 236.12187 36.89375 235.46562Q36.159374 234.80937 36.05 233.73125Z" fill-rule="nonzero"/><path fill="#000000" d="M19.05 171.72534Q19.05 170.19409 19.3625 169.27222Q19.675 168.33472 20.284374 167.83472Q20.909374 167.33472 21.846874 167.33472Q22.534374 167.33472 23.05 167.61597Q23.58125 167.89722 23.925 168.42847Q24.26875 168.94409 24.45625 169.69409Q24.64375 170.44409 24.64375 171.72534Q24.64375 173.24097 24.33125 174.16284Q24.034374 175.08472 23.409374 175.60034Q22.8 176.10034 21.846874 176.10034Q20.6125 176.10034 19.89375 175.20972Q19.05 174.14722 19.05 171.72534ZM20.128124 171.72534Q20.128124 173.83472 20.628124 174.53784Q21.128124 175.24097 21.846874 175.24097Q22.58125 175.24097 23.065624 174.53784Q23.565624 173.83472 23.565624 171.72534Q23.565624 169.60034 23.065624 168.91284Q22.58125 168.20972 21.83125 168.20972Q21.1125 168.20972 20.675 168.81909Q20.128124 169.60034 20.128124 171.72534ZM26.64375 175.95972L26.64375 174.75659L27.846874 174.75659L27.846874 175.95972L26.64375 175.95972ZM29.05 173.70972L30.159374 173.61597Q30.284374 174.42847 30.721874 174.83472Q31.175 175.24097 31.815624 175.24097Q32.565624 175.24097 33.096874 174.66284Q33.628124 174.08472 33.628124 173.14722Q33.628124 172.24097 33.1125 171.72534Q32.6125 171.19409 31.784374 171.19409Q31.284374 171.19409 30.8625 171.42847Q30.45625 171.66284 30.221874 172.02222L29.2375 171.89722L30.065624 167.49097L34.346874 167.49097L34.346874 168.49097L30.909374 168.49097L30.45625 170.80347Q31.221874 170.25659 32.065624 170.25659Q33.190624 170.25659 33.95625 171.03784Q34.7375 171.81909 34.7375 173.05347Q34.7375 174.20972 34.065624 175.06909Q33.2375 176.10034 31.815624 176.10034Q30.64375 176.10034 29.89375 175.44409Q29.159374 174.78784 29.05 173.70972ZM36.05 171.72534Q36.05 170.19409 36.3625 169.27222Q36.675 168.33472 37.284374 167.83472Q37.909374 167.33472 38.846874 167.33472Q39.534374 167.33472 40.05 167.61597Q40.58125 167.89722 40.925 168.42847Q41.26875 168.94409 41.45625 169.69409Q41.64375 170.44409 41.64375 171.72534Q41.64375 173.24097 41.33125 174.16284Q41.034374 175.08472 40.409374 175.60034Q39.8 176.10034 38.846874 176.10034Q37.6125 176.10034 36.89375 175.20972Q36.05 174.14722 36.05 171.72534ZM37.128124 171.72534Q37.128124 173.83472 37.628124 174.53784Q38.128124 175.24097 38.846874 175.24097Q39.58125 175.24097 40.065624 174.53784Q40.565624 173.83472 40.565624 171.72534Q40.565624 169.60034 40.065624 168.91284Q39.58125 168.20972 38.83125 168.20972Q38.1125 168.20972 37.675 168.81909Q37.128124 169.60034 37.128124 171.72534Z" fill-rule="nonzero"/><path fill="#000000" d="M19.05 111.70382Q19.05 110.17257 19.3625 109.250694Q19.675 108.313194 20.284374 107.813194Q20.909374 107.313194 21.846874 107.313194Q22.534374 107.313194 23.05 107.594444Q23.58125 107.875694 23.925 108.406944Q24.26875 108.92257 24.45625 109.67257Q24.64375 110.42257 24.64375 111.70382Q24.64375 113.219444 24.33125 114.14132Q24.034374 115.063194 23.409374 115.57882Q22.8 116.07882 21.846874 116.07882Q20.6125 116.07882 19.89375 115.188194Q19.05 114.125694 19.05 111.70382ZM20.128124 111.70382Q20.128124 113.813194 20.628124 114.51632Q21.128124 115.219444 21.846874 115.219444Q22.58125 115.219444 23.065624 114.51632Q23.565624 113.813194 23.565624 111.70382Q23.565624 109.57882 23.065624 108.89132Q22.58125 108.188194 21.83125 108.188194Q21.1125 108.188194 20.675 108.79757Q20.128124 109.57882 20.128124 111.70382ZM26.64375 115.938194L26.64375 114.73507L27.846874 114.73507L27.846874 115.938194L26.64375 115.938194ZM29.1125 108.469444L29.1125 107.45382L34.675 107.45382L34.675 108.281944Q33.8625 109.156944 33.05 110.61007Q32.253124 112.04757 31.815624 113.57882Q31.4875 114.656944 31.409374 115.938194L30.315624 115.938194Q30.33125 114.92257 30.70625 113.48507Q31.096874 112.04757 31.8 110.719444Q32.51875 109.39132 33.33125 108.469444L29.1125 108.469444ZM36.05 113.688194L37.159374 113.594444Q37.284374 114.406944 37.721874 114.813194Q38.175 115.219444 38.815624 115.219444Q39.565624 115.219444 40.096874 114.64132Q40.628124 114.063194 40.628124 113.125694Q40.628124 112.219444 40.1125 111.70382Q39.6125 111.17257 38.784374 111.17257Q38.284374 111.17257 37.8625 111.406944Q37.45625 111.64132 37.221874 112.000694L36.2375 111.875694L37.065624 107.469444L41.346874 107.469444L41.346874 108.469444L37.909374 108.469444L37.45625 110.781944Q38.221874 110.23507 39.065624 110.23507Q40.190624 110.23507 40.95625 111.01632Q41.7375 111.79757 41.7375 113.031944Q41.7375 114.188194 41.065624 115.04757Q40.2375 116.07882 38.815624 116.07882Q37.64375 116.07882 36.89375 115.42257Q36.159374 114.76632 36.05 113.688194Z" fill-rule="nonzero"/><path fill="#000000" d="M23.01875 55.916668L21.971874 55.916668L21.971874 49.197918Q21.58125 49.557293 20.95625 49.932293Q20.346874 50.291668 19.8625 50.463543L19.8625 49.447918Q20.7375 49.026043 21.39375 48.447918Q22.065624 47.854168 22.346874 47.291668L23.01875 47.291668L23.01875 55.916668ZM26.64375 55.916668L26.64375 54.713543L27.846874 54.713543L27.846874 55.916668L26.64375 55.916668ZM29.05 51.682293Q29.05 50.151043 29.3625 49.229168Q29.675 48.291668 30.284374 47.791668Q30.909374 47.291668 31.846874 47.291668Q32.534374 47.291668 33.05 47.572918Q33.58125 47.854168 33.925 48.385418Q34.26875 48.901043 34.45625 49.651043Q34.64375 50.401043 34.64375 51.682293Q34.64375 53.197918 34.33125 54.119793Q34.034374 55.041668 33.409374 55.557293Q32.8 56.057293 31.846874 56.057293Q30.6125 56.057293 29.89375 55.166668Q29.05 54.104168 29.05 51.682293ZM30.128124 51.682293Q30.128124 53.791668 30.628124 54.494793Q31.128124 55.197918 31.846874 55.197918Q32.58125 55.197918 33.065624 54.494793Q33.565624 53.791668 33.565624 51.682293Q33.565624 49.557293 33.065624 48.869793Q32.58125 48.166668 31.83125 48.166668Q31.1125 48.166668 30.675 48.776043Q30.128124 49.557293 30.128124 51.682293ZM36.05 51.682293Q36.05 50.151043 36.3625 49.229168Q36.675 48.291668 37.284374 47.791668Q37.909374 47.291668 38.846874 47.291668Q39.534374 47.291668 40.05 47.572918Q40.58125 47.854168 40.925 48.385418Q41.26875 48.901043 41.45625 49.651043Q41.64375 50.401043 41.64375 51.682293Q41.64375 53.197918 41.33125 54.119793Q41.034374 55.041668 40.409374 55.557293Q39.8 56.057293 38.846874 56.057293Q37.6125 56.057293 36.89375 55.166668Q36.05 54.104168 36.05 51.682293ZM37.128124 51.682293Q37.128124 53.791668 37.628124 54.494793Q38.128124 55.197918 38.846874 55.197918Q39.58125 55.197918 40.065624 54.494793Q40.565624 53.791668 40.565624 51.682293Q40.565624 49.557293 40.065624 48.869793Q39.58125 48.166668 38.83125 48.166668Q38.1125 48.166668 37.675 48.776043Q37.128124 49.557293 37.128124 51.682293Z" fill-rule="nonzero"/><path fill="#000000" d="M61.434757 328.3642L62.152912 329.08234L58.131245 333.104Q57.866077 332.83884 57.700348 332.49634Q57.44623 331.93286 57.379944 331.20364Q57.3247 330.4634 57.44623 329.3033Q57.62301 327.49133 57.49043 326.67377Q57.368893 325.84512 56.949047 325.42526Q56.507107 324.98334 55.88839 325.00543Q55.25862 325.01648 54.75039 325.52472Q54.20901 326.06607 54.20901 326.7069Q54.20901 327.34772 54.772484 327.9333L53.932796 328.6183Q53.14835 327.67917 53.21464 326.729Q53.280933 325.7567 54.153767 324.88388Q55.026604 324.01105 56.02097 323.98895Q57.01534 323.96686 57.733494 324.68503Q58.0981 325.04962 58.29697 325.55786Q58.495846 326.04398 58.54004 326.7953Q58.584232 327.5245 58.4627 328.99396Q58.352215 330.23138 58.363262 330.64017Q58.37431 331.0269 58.451653 331.3473L61.434757 328.3642ZM66.240875 324.9944L65.688446 324.44196Q65.92046 325.51367 65.11392 326.3202Q64.583595 326.85052 63.85439 327.00522Q63.114136 327.14883 62.351788 326.87262Q61.589436 326.5964 60.915478 325.92245Q60.26361 325.2706 59.943203 324.50824Q59.622795 323.74588 59.788525 323.02774Q59.943203 322.29852 60.48458 321.75714Q60.88233 321.3594 61.357418 321.2158Q61.832504 321.07214 62.296543 321.13843L60.11998 318.96188L60.860233 318.22162L66.936935 324.2983L66.240875 324.9944ZM61.688873 325.14905Q62.53961 325.9998 63.31301 326.06607Q64.075356 326.12134 64.56149 325.6352Q65.04763 325.14905 64.992386 324.4088Q64.93715 323.66855 64.11955 322.85095Q63.213573 321.94498 62.440174 321.8787Q61.677826 321.80136 61.169594 322.30957Q60.67241 322.80676 60.74975 323.54703Q60.81604 324.2762 61.688873 325.14905ZM69.59963 318.40945L70.42827 317.77966Q71.05804 318.65253 70.991745 319.5806Q70.92545 320.50867 70.2073 321.22684Q69.30132 322.1328 68.16332 322.09967Q67.02532 322.0444 65.92046 320.93958Q65.213356 320.23245 64.91505 319.4701Q64.61674 318.68567 64.82666 317.9454Q65.04763 317.1941 65.622154 316.61957Q66.32926 315.91248 67.14685 315.8241Q67.96445 315.7136 68.77099 316.25497L68.152275 317.09467Q67.61089 316.75217 67.124756 316.79636Q66.62757 316.8295 66.25192 317.20514Q65.688446 317.76862 65.74369 318.53098Q65.78788 319.2823 66.66072 320.15512Q67.55565 321.05005 68.295906 321.1053Q69.036156 321.16052 69.57754 320.61914Q70.01948 320.17722 70.04157 319.6248Q70.074715 319.0613 69.59963 318.40945ZM70.107864 316.73007Q68.88148 315.5037 68.969864 314.24414Q69.0472 313.19452 69.8648 312.37695Q70.770775 311.47095 71.941925 311.49304Q73.11307 311.49304 74.16268 312.54266Q75.01342 313.3934 75.24544 314.13367Q75.477455 314.8739 75.256485 315.6473Q75.035515 316.39862 74.46099 316.97314Q73.54396 317.89017 72.383865 317.87912Q71.22377 317.84598 70.107864 316.73007ZM70.87022 315.9677Q71.7099 316.8074 72.49435 316.86264Q73.28985 316.90683 73.84227 316.3544Q74.40575 315.79095 74.3505 315.0065Q74.295265 314.22205 73.43348 313.36026Q72.61588 312.54266 71.82039 312.49847Q71.03594 312.44324 70.48351 312.99567Q69.93108 313.5481 69.97528 314.34357Q70.01948 315.11697 70.87022 315.9677ZM77.532486 313.70276L73.13516 309.30545L73.79808 308.64255L74.416794 309.26126Q74.18478 308.05695 75.10181 307.13992Q75.49955 306.7422 75.97464 306.55435Q76.46078 306.35547 76.85852 306.42178Q77.25627 306.48807 77.63192 306.73114Q77.87499 306.9079 78.39427 307.4272L81.101166 310.1341L80.360916 310.87433L77.687164 308.2006Q77.22313 307.73654 76.913765 307.60397Q76.60441 307.47137 76.250854 307.55978Q75.88625 307.63712 75.587944 307.93542Q75.112854 308.41052 75.06866 309.07343Q75.02447 309.71423 75.86416 310.55392L78.272736 312.96252L77.532486 313.70276ZM83.69757 307.5377L77.63192 304.8087L78.41637 304.02423L81.99609 305.7036Q82.57062 305.99088 83.1562 306.31128Q82.913124 305.86935 82.60377 305.20642L80.90229 301.53833L81.66464 300.77597L84.39363 306.8416L83.69757 307.5377Z" fill-rule="nonzero"/><path fill="#000000" d="M84.12266 349.17963Q84.056366 349.95303 83.81329 350.48337Q83.581276 351.00266 83.139336 351.44458Q82.41013 352.1738 81.669876 352.20694Q80.92963 352.24008 80.3772 351.68765Q80.05679 351.36725 79.93526 350.95844Q79.80267 350.5386 79.89107 350.14087Q79.96841 349.73206 80.18938 349.3564Q80.33301 349.0802 80.73075 348.57196Q81.526245 347.5776 81.80246 346.99203Q81.64778 346.83734 81.61464 346.8042Q81.1506 346.34015 80.75285 346.36224Q80.22252 346.40646 79.65904 346.96994Q79.13976 347.4892 79.07347 347.93115Q78.99613 348.36203 79.33864 348.9476L78.509995 349.5774Q78.14539 349.01392 78.09015 348.49463Q78.03491 347.97534 78.31112 347.38977Q78.58733 346.8042 79.15081 346.24072Q79.71429 345.67725 80.200424 345.45627Q80.68656 345.2353 81.05116 345.26846Q81.415764 345.3016 81.79141 345.54468Q82.01238 345.69934 82.50957 346.19653L83.50394 347.1909Q84.5425 348.22946 84.86291 348.4615Q85.19437 348.68246 85.59211 348.79294L84.80766 349.5774Q84.465164 349.45584 84.12266 349.17963ZM82.38804 347.5776Q82.144966 348.15213 81.45996 349.0802Q81.06221 349.61053 80.962776 349.88675Q80.85229 350.15192 80.896484 350.41708Q80.95172 350.67117 81.1506 350.87006Q81.448906 351.16837 81.86875 351.14627Q82.299644 351.11313 82.73054 350.68225Q83.16143 350.25134 83.30506 349.73206Q83.45975 349.20172 83.28297 348.7156Q83.15038 348.33994 82.664246 347.85382L82.38804 347.5776ZM89.59168 344.79337L89.03926 344.24094Q89.27128 345.31265 88.46474 346.1192Q87.9344 346.6495 87.2052 346.8042Q86.46495 346.9478 85.7026 346.6716Q84.94025 346.39542 84.26629 345.72144Q83.614426 345.06958 83.294014 344.30722Q82.97361 343.5449 83.139336 342.82672Q83.294014 342.0975 83.835396 341.55615Q84.23314 341.1584 84.70823 341.01477Q85.18332 340.87112 85.647354 340.9374L83.470795 338.76086L84.211044 338.0206L90.28774 344.0973L89.59168 344.79337ZM85.03969 344.94803Q85.89043 345.79877 86.66382 345.86508Q87.42617 345.92032 87.91231 345.43417Q88.398445 344.94803 88.3432 344.2078Q88.28796 343.46753 87.47037 342.64993Q86.564384 341.74396 85.790985 341.67767Q85.02864 341.60034 84.5204 342.10858Q84.02322 342.60574 84.10056 343.346Q84.16685 344.0752 85.03969 344.94803ZM94.541435 339.84363L93.989006 339.2912Q94.22102 340.36288 93.41448 341.16943Q92.88415 341.69977 92.154945 341.85446Q91.414696 341.99808 90.65234 341.72186Q89.89 341.44565 89.216034 340.7717Q88.56417 340.11984 88.24377 339.35748Q87.923355 338.59512 88.08908 337.87698Q88.24377 337.14777 88.78514 336.60638Q89.18289 336.20865 89.657974 336.065Q90.133064 335.9214 90.5971 335.98767L88.42054 333.8111L89.16079 333.07086L95.23749 339.14755L94.541435 339.84363ZM89.98943 339.9983Q90.84017 340.84903 91.61357 340.9153Q92.375916 340.97058 92.86205 340.48444Q93.34819 339.9983 93.292946 339.25806Q93.2377 338.5178 92.42011 337.7002Q91.51413 336.79422 90.74073 336.72794Q89.978386 336.65057 89.47015 337.1588Q88.97297 337.656 89.05031 338.39627Q89.1166 339.12546 89.98943 339.9983ZM97.635025 340.1309L97.09364 339.5895L102.043396 334.63974L102.58477 335.18112L97.635025 340.1309ZM102.80574 331.5793L96.74009 328.8503L97.524536 328.06586L101.10427 329.74524Q101.678795 330.0325 102.264366 330.3529Q102.02129 329.91098 101.71194 329.24805L100.01046 325.57996L100.77281 324.8176L103.5018 330.88324L102.80574 331.5793ZM106.71693 324.8397L107.57871 324.1547Q108.0759 325.00543 107.95436 325.87827Q107.83283 326.7511 107.07048 327.51343Q106.10926 328.47467 104.93811 328.45258Q103.778015 328.41943 102.70631 327.34772Q101.601456 326.24286 101.568306 325.06067Q101.52411 323.86743 102.43009 322.96143Q103.31398 322.07755 104.46303 322.12177Q105.62312 322.1549 106.71693 323.2487Q106.78322 323.315 106.9158 323.44757L103.634384 326.729Q104.40778 327.414 105.15908 327.4361Q105.89934 327.44714 106.45176 326.8947Q106.86056 326.48593 106.9379 325.98874Q107.015236 325.46945 106.71693 324.8397ZM103.07091 326.07712L105.52368 323.62436Q104.916016 323.10507 104.40778 323.06088Q103.61229 322.9946 103.04881 323.55807Q102.52953 324.07733 102.51848 324.7734Q102.51848 325.4584 103.07091 326.07712ZM111.33522 319.82367L112.16386 319.19388Q112.793625 320.0667 112.72733 320.9948Q112.66104 321.92288 111.94289 322.64102Q111.03691 323.54703 109.89891 323.51385Q108.76091 323.45862 107.65605 322.35376Q106.948944 321.64667 106.650635 320.8843Q106.352325 320.09985 106.56225 319.35962Q106.78322 318.6083 107.35774 318.03378Q108.06485 317.3267 108.88244 317.23828Q109.700035 317.1278 110.50658 317.6692L109.88786 318.50888Q109.34648 318.16638 108.860344 318.21057Q108.36316 318.2437 107.98751 318.61935Q107.424034 319.18283 107.47928 319.9452Q107.52347 320.6965 108.39631 321.56934Q109.29124 322.46426 110.031494 322.5195Q110.77174 322.57474 111.313126 322.03336Q111.755066 321.59143 111.77716 321.039Q111.8103 320.47552 111.33522 319.82367ZM115.27955 317.77966L116.0419 318.32104Q115.78778 318.70776 115.544716 318.9508Q115.13592 319.35962 114.79341 319.45905Q114.43986 319.54745 114.1305 319.43695Q113.83219 319.31543 113.158226 318.64145L110.62811 316.11136L110.08673 316.6527L109.51221 316.0782L110.05359 315.53683L108.959785 314.44302L109.258095 313.26083L110.79384 314.79657L111.54514 314.04526L112.11967 314.61978L111.36836 315.3711L113.94267 317.9454Q114.263084 318.2658 114.38462 318.32104Q114.5172 318.36523 114.66083 318.3321Q114.80446 318.29895 114.97019 318.13324Q115.102776 318.00064 115.27955 317.77966ZM113.964775 316.02295Q112.73838 314.79657 112.826775 313.53705Q112.90411 312.48743 113.7217 311.66983Q114.627686 310.76385 115.79883 310.78595Q116.96998 310.78595 118.019585 311.83557Q118.87032 312.6863 119.10235 313.42654Q119.334366 314.1668 119.113396 314.9402Q118.892426 315.6915 118.3179 316.26602Q117.40087 317.18304 116.240776 317.172Q115.08067 317.13885 113.964775 316.02295ZM114.72712 315.26062Q115.56681 316.10028 116.35126 316.15555Q117.14675 316.19974 117.69918 315.6473Q118.26266 315.08383 118.20741 314.29938Q118.15217 313.51492 117.29038 312.65314Q116.47279 311.83557 115.6773 311.79135Q114.89285 311.7361 114.34042 312.28854Q113.787994 312.84097 113.83219 313.63647Q113.87638 314.40988 114.72712 315.26062ZM121.37834 313.0067L116.981026 308.60938L117.65498 307.93542L118.3179 308.59833Q118.10798 307.8802 118.17427 307.5266Q118.24056 307.15097 118.50572 306.8858Q118.88137 306.51016 119.50009 306.35547L119.94203 307.30566Q119.50009 307.41614 119.234924 307.6813Q118.98081 307.93542 118.936615 308.28897Q118.892426 308.62042 119.080246 308.96292Q119.34541 309.49326 119.80945 309.9573L122.1186 312.26645L121.37834 313.0067ZM122.60474 309.15076L123.22345 308.31107Q123.73168 308.68674 124.239914 308.64252Q124.7592 308.58728 125.27848 308.068Q125.78671 307.55978 125.83091 307.11783Q125.8751 306.65378 125.58784 306.36652Q125.333725 306.11243 124.969124 306.18976Q124.715004 306.245 123.95265 306.698Q122.92514 307.30566 122.461105 307.48242Q121.99706 307.63712 121.56617 307.5377Q121.13528 307.43823 120.80382 307.10678Q120.516556 306.81952 120.39503 306.43283Q120.27349 306.0461 120.33978 305.64838Q120.39503 305.35007 120.60495 304.96335Q120.81487 304.57666 121.16842 304.2231Q121.67666 303.71487 122.21803 303.48285Q122.759415 303.22873 123.201355 303.29504Q123.643295 303.36133 124.12943 303.71487L123.499664 304.54352Q123.124016 304.25626 122.69312 304.3115Q122.26223 304.34464 121.82029 304.7866Q121.31206 305.29483 121.26786 305.69257Q121.212616 306.07925 121.44463 306.31128Q121.588264 306.45493 121.78714 306.47702Q122.00811 306.4991 122.27328 306.3886Q122.427956 306.32233 123.124016 305.91354Q124.14048 305.33902 124.58242 305.16223Q125.02436 304.98547 125.45526 305.0628Q125.886154 305.14014 126.27285 305.52682Q126.6485 305.9025 126.75899 306.45493Q126.86947 306.98526 126.6485 307.58188Q126.41648 308.16745 125.8972 308.68674Q125.035416 309.54852 124.22887 309.64795Q123.422325 309.72528 122.60474 309.15076Z" fill-rule="nonzero"/><path fill="#000000" d="M159.09225 317.35983Q159.02597 318.13324 158.7829 318.66354Q158.55087 319.18283 158.10893 319.6248Q157.37973 320.35397 156.63948 320.38715Q155.89923 320.4203 155.3468 319.86786Q155.0264 319.54745 154.90486 319.13864Q154.77228 318.7188 154.86067 318.32104Q154.938 317.91226 155.15898 317.53662Q155.30261 317.2604 155.70035 316.75217Q156.49585 315.75778 156.77206 315.1722Q156.61739 315.01755 156.58424 314.9844Q156.1202 314.52036 155.72246 314.54245Q155.19212 314.58664 154.62865 315.15012Q154.10936 315.6694 154.04308 316.11136Q153.96573 316.54224 154.30824 317.1278L153.4796 317.75757Q153.11499 317.1941 153.05975 316.67484Q153.00452 316.15555 153.28073 315.56998Q153.55693 314.9844 154.1204 314.42093Q154.68388 313.85745 155.17003 313.63647Q155.65616 313.4155 156.02077 313.44864Q156.38536 313.48178 156.76102 313.72485Q156.98198 313.87955 157.47917 314.3767L158.47354 315.3711Q159.5121 316.40967 159.8325 316.64166Q160.16397 316.86264 160.5617 316.97314L159.77727 317.75757Q159.43477 317.63605 159.09225 317.35983ZM157.35764 315.75778Q157.11456 316.3323 156.42957 317.2604Q156.03181 317.7907 155.93237 318.06693Q155.82188 318.3321 155.86609 318.59726Q155.92133 318.85138 156.1202 319.05026Q156.4185 319.34857 156.83835 319.32648Q157.26924 319.29333 157.70013 318.86243Q158.13103 318.43155 158.27466 317.91226Q158.42935 317.38193 158.25256 316.89578Q158.11998 316.52014 157.63385 316.034L157.35764 315.75778ZM162.67198 313.53705L163.43434 314.0784Q163.18022 314.46512 162.93715 314.7082Q162.52835 315.11697 162.18585 315.2164Q161.83229 315.3048 161.52293 315.1943Q161.22462 315.07278 160.55066 314.39883L158.02055 311.8687L157.47917 312.4101L156.90465 311.83557L157.44603 311.2942L156.35222 310.20038L156.65053 309.0182L158.18628 310.55392L158.93758 309.8026L159.5121 310.37714L158.7608 311.12845L161.33511 313.70276Q161.65552 314.02316 161.77705 314.0784Q161.90964 314.12262 162.05327 314.08945Q162.1969 314.0563 162.36263 313.8906Q162.49521 313.758 162.67198 313.53705ZM166.16333 310.28876Q166.09703 311.06216 165.85397 311.5925Q165.62195 312.1118 165.18001 312.5537Q164.4508 313.28293 163.71056 313.31607Q162.97029 313.3492 162.41786 312.79678Q162.09746 312.47638 161.97592 312.06757Q161.84334 311.64774 161.93173 311.25Q162.00908 310.8412 162.23004 310.46555Q162.37367 310.18933 162.77142 309.6811Q163.56693 308.68674 163.84312 308.10117Q163.68845 307.94647 163.6553 307.91333Q163.19127 307.44928 162.79352 307.47137Q162.26318 307.51556 161.6997 308.07904Q161.18044 308.59833 161.11414 309.04028Q161.0368 309.47116 161.3793 310.05673L160.55066 310.68652Q160.18607 310.12305 160.13081 309.60376Q160.07558 309.08447 160.35179 308.4989Q160.628 307.91333 161.19148 307.34985Q161.75496 306.78638 162.24109 306.5654Q162.72723 306.34442 163.09183 306.37756Q163.45644 306.41074 163.83208 306.65378Q164.05305 306.80847 164.55023 307.30566L165.5446 308.30002Q166.58318 309.3386 166.90358 309.57062Q167.23503 309.79156 167.63278 309.90207L166.84833 310.68652Q166.50583 310.56497 166.16333 310.28876ZM164.42871 308.68674Q164.18564 309.26126 163.50063 310.18933Q163.10287 310.71967 163.00345 310.99588Q162.89296 311.26105 162.93715 311.5262Q162.9924 311.7803 163.19127 311.9792Q163.48958 312.2775 163.90942 312.2554Q164.34032 312.22226 164.77121 311.79135Q165.2021 311.36047 165.34573 310.8412Q165.50041 310.31085 165.32364 309.82474Q165.19106 309.44907 164.70491 308.96295L164.42871 308.68674ZM168.28465 309.2502L167.59964 305.3611L164.00887 304.73135L164.93694 303.80325L166.63841 304.15683Q167.12454 304.2673 167.44496 304.34464Q167.34552 303.89166 167.29028 303.52707L166.99197 301.74823L167.8869 300.8533L168.42828 304.4441L172.3947 305.14014L171.48872 306.0461L169.21272 305.5821L168.60506 305.46054L169.17958 308.35526L168.28465 309.2502Z" fill-rule="nonzero"/><path fill="#000000" d="M180.08972 340.5949L179.39366 341.291L173.31697 335.21426L174.06827 334.46298L176.23378 336.62848Q176.12329 335.56784 176.85251 334.83862Q177.26129 334.42984 177.78058 334.242Q178.29987 334.03207 178.83018 334.0984Q179.37157 334.15363 179.924 334.4409Q180.47643 334.72815 180.9515 335.20322Q182.07846 336.33017 182.1337 337.5124Q182.18895 338.69458 181.41554 339.46796Q180.6311 340.2524 179.5373 340.04248L180.08972 340.5949ZM177.84686 338.37418Q178.63132 339.1586 179.20584 339.2912Q180.13391 339.51218 180.73055 338.91553Q181.21667 338.4294 181.15039 337.656Q181.09514 336.87155 180.2444 336.0208Q179.38261 335.15903 178.63132 335.09274Q177.88002 335.02646 177.39388 335.5126Q176.90775 335.99872 176.97403 336.79422Q177.04033 337.56763 177.84686 338.37418ZM186.6857 332.91617Q186.61942 333.68958 186.37634 334.2199Q186.14433 334.7392 185.70238 335.18112Q184.97318 335.91034 184.23293 335.94348Q183.49268 335.97662 182.94025 335.4242Q182.61984 335.1038 182.4983 334.695Q182.36572 334.27515 182.45412 333.8774Q182.53145 333.4686 182.75243 333.09296Q182.89606 332.81674 183.29381 332.3085Q184.0893 331.31415 184.36551 330.72858Q184.21083 330.57388 184.17769 330.54074Q183.71365 330.0767 183.3159 330.09882Q182.78557 330.143 182.22209 330.70648Q181.7028 331.22577 181.63652 331.6677Q181.55917 332.0986 181.90169 332.68417L181.07304 333.31393Q180.70844 332.75046 180.6532 332.23117Q180.59796 331.71188 180.87418 331.1263Q181.15039 330.54074 181.71387 329.97726Q182.27733 329.4138 182.76347 329.1928Q183.2496 328.97186 183.61421 329.005Q183.9788 329.03815 184.35446 329.28122Q184.57544 329.43588 185.07262 329.93307L186.06699 330.92743Q187.10555 331.966 187.42596 332.19803Q187.75742 332.419 188.15517 332.52948L187.37071 333.31393Q187.02821 333.19238 186.6857 332.91617ZM184.95108 331.31415Q184.70801 331.88867 184.02301 332.81674Q183.62526 333.34708 183.52582 333.6233Q183.41533 333.88846 183.45953 334.15363Q183.51477 334.40775 183.71365 334.6066Q184.01196 334.9049 184.43181 334.8828Q184.8627 334.84967 185.2936 334.4188Q185.72449 333.98788 185.86812 333.4686Q186.0228 332.9383 185.84601 332.45215Q185.71344 332.07648 185.2273 331.59036L184.95108 331.31415ZM190.56374 326.8947L191.39238 326.26495Q192.02216 327.1378 191.95586 328.06586Q191.88957 328.99396 191.17142 329.7121Q190.26543 330.61807 189.12743 330.58493Q187.98943 330.5297 186.88458 329.42484Q186.17747 328.71774 185.87917 327.95538Q185.58086 327.17093 185.79077 326.4307Q186.01175 325.67938 186.58627 325.10486Q187.29338 324.39777 188.11096 324.30936Q188.92856 324.19888 189.7351 324.74026L189.11638 325.57996Q188.57501 325.23746 188.08887 325.28165Q187.59169 325.3148 187.21603 325.69043Q186.65256 326.2539 186.7078 327.01627Q186.752 327.76755 187.62483 328.64038Q188.51976 329.53534 189.26001 329.59058Q190.00027 329.6458 190.54164 329.10443Q190.98358 328.6625 191.00569 328.11008Q191.03883 327.5466 190.56374 326.8947ZM193.54684 327.1378L187.47015 321.0611L188.22145 320.30978L191.69069 323.77902L191.65755 320.23245L192.62982 319.2602L192.56352 322.57474L197.19287 323.49176L196.27583 324.4088L192.56352 323.6133L192.55247 324.6408L194.29816 326.3865L193.54684 327.1378ZM199.47992 324.58557L193.39217 318.49783L194.06613 317.82388L194.62961 318.38736Q194.54121 317.81284 194.6738 317.3488Q194.81743 316.8737 195.24832 316.4428Q195.8118 315.87933 196.52995 315.7357Q197.24811 315.59207 197.98836 315.91248Q198.73967 316.22183 199.36943 316.8516Q200.0434 317.52557 200.3417 318.31Q200.65106 319.0834 200.47429 319.83472Q200.29752 320.586 199.78928 321.09424Q199.41362 321.46988 198.96063 321.61353Q198.4966 321.7461 198.07675 321.7019L200.22017 323.84534L199.47992 324.58557ZM196.2869 320.04462Q197.13763 320.89536 197.88893 320.96167Q198.62918 321.0169 199.11531 320.53076Q199.6125 320.03357 199.5462 319.2602Q199.47992 318.4868 198.59604 317.6029Q197.75635 316.7632 197.00505 316.69693Q196.24269 316.61957 195.75656 317.1057Q195.28148 317.5808 195.35881 318.38736Q195.43616 319.19388 196.2869 320.04462ZM202.7282 317.95645L198.33087 313.55914L199.00484 312.88516L199.66774 313.5481Q199.45782 312.82993 199.52411 312.47638Q199.59041 312.10074 199.85558 311.83557Q200.23122 311.4599 200.84993 311.30524L201.29189 312.2554Q200.84993 312.36588 200.58478 312.63104Q200.33066 312.88516 200.28647 313.23874Q200.24226 313.5702 200.4301 313.9127Q200.69525 314.44302 201.1593 314.90704L203.46844 317.2162L202.7282 317.95645ZM203.09279 313.19452Q201.86641 311.96814 201.95479 310.70862Q202.03214 309.659 202.84972 308.8414Q203.7557 307.93542 204.92685 307.95752Q206.09799 307.95752 207.14761 309.00714Q207.99835 309.85788 208.23036 310.5981Q208.46239 311.33838 208.24141 312.1118Q208.02045 312.86307 207.44592 313.4376Q206.52888 314.3546 205.36879 314.34357Q204.2087 314.31042 203.09279 313.19452ZM203.85515 312.4322Q204.69482 313.27188 205.47928 313.32712Q206.27477 313.3713 206.8272 312.81888Q207.39067 312.2554 207.33543 311.47095Q207.2802 310.68652 206.4184 309.82474Q205.60081 309.00714 204.80531 308.96295Q204.02087 308.90768 203.46844 309.4601Q202.91602 310.01254 202.9602 310.80804Q203.00441 311.58145 203.85515 312.4322ZM212.20784 311.85767L206.12009 305.7699L206.79405 305.09595L207.35753 305.65942Q207.26913 305.0849 207.40172 304.62085Q207.54535 304.14578 207.97624 303.71487Q208.53972 303.1514 209.25787 303.00778Q209.97603 302.86414 210.7163 303.18454Q211.46759 303.4939 212.09735 304.1237Q212.77132 304.79764 213.06963 305.5821Q213.37898 306.35547 213.20221 307.10678Q213.02544 307.8581 212.5172 308.3663Q212.14156 308.74197 211.68855 308.8856Q211.22452 309.0182 210.80467 308.974L212.94809 311.1174L212.20784 311.85767ZM209.01482 307.3167Q209.86555 308.16745 210.61685 308.23373Q211.3571 308.28897 211.84323 307.80286Q212.34042 307.30566 212.27412 306.53226Q212.20784 305.75885 211.32396 304.87497Q210.48427 304.03528 209.73297 303.969Q208.97061 303.89166 208.48448 304.3778Q208.0094 304.85287 208.08673 305.65942Q208.16408 306.46597 209.01482 307.3167Z" fill-rule="nonzero"/><path fill="#000000" d="M247.28116 316.55328L246.5851 317.24936L240.50839 311.17264L241.25969 310.42136L243.42522 312.58685Q243.31473 311.5262 244.04393 310.797Q244.45273 310.3882 244.972 310.20038Q245.49129 309.99045 246.02162 310.05673Q246.56299 310.112 247.11542 310.39926Q247.66785 310.68652 248.14294 311.1616Q249.26988 312.28854 249.32513 313.47073Q249.38037 314.65295 248.60698 315.42633Q247.82253 316.2108 246.72873 316.00085L247.28116 316.55328ZM245.0383 314.33252Q245.82274 315.11697 246.39726 315.24957Q247.32535 315.47052 247.92197 314.8739Q248.4081 314.3878 248.34181 313.61438Q248.28658 312.82993 247.43584 311.9792Q246.57405 311.1174 245.82274 311.05112Q245.07144 310.98483 244.58531 311.47095Q244.09917 311.9571 244.16547 312.7526Q244.23175 313.526 245.0383 314.33252ZM251.72267 312.1118L247.89987 308.28897L247.23695 308.9519L246.66243 308.37738L247.32535 307.71445L246.85025 307.23938Q246.40831 306.79742 246.27573 306.51016Q246.0879 306.10138 246.1763 305.65942Q246.27573 305.20642 246.76187 304.7203Q247.08228 304.3999 247.53526 304.1016L248.0656 304.85287Q247.80043 305.05176 247.59052 305.2617Q247.248 305.6042 247.248 305.89145Q247.25905 306.16766 247.6568 306.5654L248.0656 306.9742L248.92738 306.11243L249.5019 306.68695L248.64012 307.54874L252.46292 311.37152L251.72267 312.1118ZM252.05412 309.15076L252.67284 308.31107Q253.18108 308.68674 253.6893 308.64255Q254.20859 308.58728 254.72787 308.06802Q255.2361 307.55978 255.2803 307.11783Q255.3245 306.6538 255.03723 306.36655Q254.78311 306.11243 254.4185 306.18976Q254.1644 306.245 253.40204 306.698Q252.37453 307.30566 251.91049 307.48242Q251.44646 307.63712 251.01556 307.5377Q250.58467 307.43823 250.2532 307.10678Q249.96594 306.81952 249.8444 306.43283Q249.72289 306.0461 249.78917 305.64838Q249.8444 305.35007 250.05434 304.96338Q250.26425 304.57666 250.61781 304.2231Q251.12604 303.71487 251.66742 303.48285Q252.2088 303.22876 252.65074 303.29504Q253.09268 303.36133 253.57883 303.71487L252.94905 304.54352Q252.57341 304.25626 252.14252 304.3115Q251.71162 304.34464 251.26967 304.7866Q250.76144 305.29483 250.71725 305.69257Q250.662 306.07928 250.89403 306.31128Q251.03766 306.45493 251.23653 306.47702Q251.4575 306.4991 251.72267 306.38864Q251.87735 306.32233 252.57341 305.91354Q253.58987 305.33902 254.03181 305.16223Q254.47375 304.98547 254.90465 305.0628Q255.33554 305.14014 255.72224 305.52686Q256.0979 305.9025 256.20837 306.45493Q256.31885 306.98526 256.0979 307.58188Q255.86588 308.16745 255.34659 308.68674Q254.4848 309.54852 253.67825 309.64795Q252.87172 309.72528 252.05412 309.15076Z" fill-rule="nonzero"/><path fill="#000000" d="M287.8014 319.18283L283.9786 315.36005L283.3157 316.02295L282.74118 315.44843L283.40408 314.78552L282.929 314.31042Q282.48706 313.86847 282.35446 313.5812Q282.16666 313.17242 282.25504 312.7305Q282.35446 312.2775 282.8406 311.79135Q283.161 311.47095 283.614 311.17264L284.14435 311.92395Q283.87918 312.1228 283.66925 312.33273Q283.32675 312.67523 283.32675 312.9625Q283.3378 313.2387 283.73553 313.63647L284.14435 314.04526L285.00613 313.18347L285.58066 313.758L284.71887 314.61978L288.54166 318.4426L287.8014 319.18283ZM292.59647 314.38776L292.04404 313.83533Q292.27606 314.90704 291.4695 315.7136Q290.93918 316.24393 290.21 316.3986Q289.46973 316.54224 288.7074 316.26602Q287.94504 315.9898 287.2711 315.31586Q286.6192 314.66397 286.2988 313.90164Q285.9784 313.13928 286.14413 312.4211Q286.2988 311.69193 286.84018 311.15054Q287.2379 310.7528 287.713 310.60916Q288.1881 310.46555 288.65213 310.53183L286.4756 308.35526L287.21582 307.61502L293.29254 313.6917L292.59647 314.38776ZM288.04446 314.54245Q288.8952 315.3932 289.6686 315.45947Q290.43097 315.5147 290.91708 315.0286Q291.40323 314.54245 291.348 313.8022Q291.29276 313.06195 290.47516 312.24435Q289.56918 311.33838 288.79578 311.27206Q288.03342 311.19473 287.52518 311.70297Q287.028 312.20016 287.10535 312.9404Q287.17163 313.66962 288.04446 314.54245ZM295.65692 310.0015L296.41928 310.54288Q296.16516 310.92957 295.9221 311.17264Q295.51328 311.58142 295.17078 311.68088Q294.81723 311.76926 294.50787 311.65878Q294.20956 311.53723 293.53558 310.86328L291.0055 308.33316L290.4641 308.87454L289.8896 308.30002L290.43097 307.75864L289.33716 306.66483L289.63547 305.48264L291.1712 307.0184L291.92252 306.2671L292.49704 306.8416L291.74573 307.59293L294.32004 310.16724Q294.64044 310.48764 294.762 310.54288Q294.89456 310.58707 295.0382 310.55392Q295.18182 310.52078 295.34756 310.35504Q295.48013 310.22247 295.65692 310.0015ZM299.66754 307.3167L299.1151 306.76428Q299.34714 307.83597 298.5406 308.64252Q298.01025 309.17285 297.28107 309.32755Q296.5408 309.47116 295.77844 309.19495Q295.0161 308.91873 294.34213 308.24478Q293.69028 307.59293 293.36987 306.83057Q293.04947 306.0682 293.21518 305.35007Q293.36987 304.62085 293.91125 304.07947Q294.309 303.68173 294.7841 303.5381Q295.2592 303.39447 295.7232 303.46075L293.54666 301.28418L294.2869 300.54395L300.3636 306.62064L299.66754 307.3167ZM295.11554 307.47137Q295.96628 308.3221 296.7397 308.3884Q297.502 308.44366 297.98816 307.95752Q298.4743 307.47137 298.41907 306.73114Q298.3638 305.99088 297.54623 305.17328Q296.64023 304.2673 295.86685 304.20102Q295.1045 304.12366 294.59625 304.6319Q294.09906 305.1291 294.17642 305.86932Q294.2427 306.59854 295.11554 307.47137Z" fill-rule="nonzero"/><path fill="#000000" d="M315.92517 334.20886L309.84848 328.13217L310.5887 327.3919L312.7653 329.56848Q312.68796 328.45258 313.48343 327.65707Q313.98062 327.15988 314.53305 327.00522Q315.08548 326.82843 315.58267 327.01627Q316.0688 327.19305 316.72067 327.8449L319.5049 330.62915L318.76465 331.3694L315.9804 328.58514Q315.41693 328.02167 314.91974 328.01062Q314.42258 327.99957 313.98062 328.44153Q313.64917 328.77298 313.52765 329.24808Q313.4061 329.70105 313.57184 330.13196Q313.73755 330.54074 314.25684 331.06003L316.66544 333.46863L315.92517 334.20886ZM318.40005 327.33667Q317.17365 326.1103 317.26205 324.85074Q317.3394 323.80115 318.15698 322.98355Q319.06296 322.07758 320.2341 322.09967Q321.40524 322.09967 322.45486 323.14926Q323.3056 324.0 323.53763 324.74026Q323.76962 325.48053 323.54868 326.2539Q323.3277 327.00522 322.75317 327.57974Q321.83615 328.49677 320.67606 328.48572Q319.51596 328.45258 318.40005 327.33667ZM319.16238 326.5743Q320.00208 327.414 320.78653 327.46927Q321.58203 327.51346 322.13446 326.96103Q322.69794 326.39755 322.6427 325.6131Q322.58743 324.82864 321.72565 323.96686Q320.90805 323.14926 320.11258 323.10507Q319.32812 323.04984 318.7757 323.60226Q318.22327 324.1547 318.26746 324.9502Q318.31165 325.72357 319.16238 326.5743ZM326.7859 322.0223L327.54825 322.5637Q327.29413 322.9504 327.05106 323.19348Q326.64227 323.60226 326.29974 323.7017Q325.9462 323.7901 325.63684 323.6796Q325.33853 323.55807 324.66458 322.8841L322.13446 320.354L321.59308 320.89536L321.01855 320.32083L321.55994 319.77948L320.46613 318.68567L320.76443 317.50348L322.30017 319.0392L323.05148 318.2879L323.626 318.86243L322.8747 319.61374L325.449 322.18805Q325.7694 322.50845 325.89096 322.5637Q326.02353 322.60788 326.16718 322.57474Q326.3108 322.5416 326.47653 322.3759Q326.6091 322.2433 326.7859 322.0223ZM326.3329 321.17157L326.95163 320.3319Q327.45984 320.70755 327.96808 320.66336Q328.48737 320.6081 329.00665 320.08884Q329.5149 319.5806 329.55908 319.13864Q329.60327 318.67462 329.316 318.38736Q329.0619 318.13324 328.6973 318.21057Q328.44318 318.2658 327.68082 318.7188Q326.65332 319.32648 326.18927 319.50327Q325.72522 319.65793 325.29434 319.5585Q324.86343 319.45905 324.53198 319.1276Q324.24472 318.84033 324.1232 318.45364Q324.00165 318.06696 324.06793 317.6692Q324.1232 317.37088 324.3331 316.9842Q324.54303 316.59747 324.89658 316.24393Q325.40482 315.7357 325.9462 315.5037Q326.48758 315.24957 326.92953 315.31586Q327.37146 315.38214 327.8576 315.7357L327.22784 316.56433Q326.85217 316.27707 326.4213 316.33234Q325.9904 316.36548 325.54846 316.8074Q325.04022 317.31564 324.99603 317.71338Q324.9408 318.1001 325.1728 318.33212Q325.31644 318.47574 325.51532 318.49783Q325.73627 318.51993 326.00143 318.40945Q326.15613 318.34317 326.85217 317.93436Q327.86865 317.35983 328.31058 317.18307Q328.75253 317.0063 329.1834 317.08362Q329.61432 317.16095 330.001 317.54767Q330.37668 317.9233 330.48715 318.47574Q330.59763 319.00607 330.37668 319.6027Q330.14465 320.18826 329.62537 320.70755Q328.76358 321.56934 327.95703 321.66876Q327.15048 321.7461 326.3329 321.17157ZM334.58615 318.92874L328.4984 312.84097L329.17236 312.16702L329.73584 312.7305Q329.64746 312.15598 329.78003 311.69193Q329.92368 311.21686 330.35458 310.78595Q330.91803 310.22247 331.6362 310.07886Q332.35437 309.9352 333.0946 310.2556Q333.84592 310.56497 334.47568 311.19476Q335.14963 311.8687 335.44794 312.65317Q335.7573 313.42654 335.58054 314.17786Q335.40375 314.92917 334.8955 315.43738Q334.51987 315.81305 334.06686 315.95667Q333.60284 316.08926 333.18298 316.04507L335.32642 318.18848L334.58615 318.92874ZM331.39313 314.3878Q332.24387 315.23853 332.99518 315.3048Q333.7354 315.36005 334.22156 314.8739Q334.71875 314.37674 334.65247 313.60333Q334.58615 312.82993 333.70227 311.94604Q332.86258 311.10635 332.1113 311.04007Q331.34894 310.96274 330.8628 311.44885Q330.38773 311.92395 330.46506 312.7305Q330.5424 313.53705 331.39313 314.3878ZM335.3706 310.36612Q334.14423 309.1397 334.2326 307.8802Q334.30994 306.83057 335.12753 306.01297Q336.0335 305.107 337.20465 305.1291Q338.37582 305.1291 339.4254 306.1787Q340.27615 307.02945 340.50818 307.7697Q340.7402 308.50995 340.51923 309.28336Q340.29825 310.03464 339.72372 310.60916Q338.8067 311.5262 337.6466 311.51517Q336.4865 311.48203 335.3706 310.36612ZM336.13297 309.60376Q336.97266 310.44345 337.75708 310.4987Q338.55258 310.54288 339.105 309.99045Q339.6685 309.42697 339.61325 308.64255Q339.558 307.8581 338.69623 306.9963Q337.87863 306.1787 337.08313 306.13452Q336.29868 306.07928 335.74625 306.6317Q335.19382 307.18414 335.23804 307.9796Q335.28223 308.75302 336.13297 309.60376ZM343.75644 305.05176L344.5188 305.59314Q344.26468 305.97983 344.0216 306.2229Q343.61282 306.6317 343.27032 306.73114Q342.91675 306.81952 342.6074 306.70905Q342.30908 306.5875 341.63513 305.91354L339.105 303.38342L338.56363 303.9248L337.9891 303.35028L338.5305 302.8089L337.43668 301.7151L337.735 300.5329L339.27075 302.06866L340.02203 301.31735L340.59656 301.89188L339.84528 302.6432L342.4196 305.2175Q342.74 305.5379 342.8615 305.59314Q342.9941 305.63733 343.13773 305.6042Q343.28137 305.57104 343.44708 305.4053Q343.57968 305.27274 343.75644 305.05176Z" fill-rule="nonzero"/><path fill="#000000" d="M361.1963 332.08752L356.79898 327.69022L357.46188 327.0273L358.0806 327.64603Q357.8486 326.44174 358.76562 325.5247Q359.16336 325.12695 359.63846 324.93912Q360.1246 324.74026 360.52234 324.80655Q360.92007 324.87283 361.29575 325.1159Q361.5388 325.2927 362.05807 325.81195L364.76498 328.51886L364.02472 329.2591L361.35098 326.58536Q360.88693 326.1213 360.57758 325.98874Q360.26822 325.85617 359.91467 325.94455Q359.55008 326.02188 359.25174 326.3202Q358.77667 326.7953 358.73248 327.4582Q358.6883 328.099 359.52795 328.9387L361.93655 331.3473L361.1963 332.08752ZM367.73703 322.71838L368.59882 322.03336Q369.096 322.8841 368.9745 323.75693Q368.85294 324.62976 368.09058 325.39212Q367.12936 326.35333 365.95822 326.33124Q364.79813 326.2981 363.7264 325.22638Q362.62155 324.12152 362.5884 322.93933Q362.54422 321.7461 363.4502 320.84012Q364.33408 319.95624 365.48312 320.00043Q366.64322 320.03357 367.73703 321.12738Q367.8033 321.19366 367.9359 321.32626L364.65448 324.60767Q365.4279 325.2927 366.1792 325.3148Q366.91943 325.32584 367.47186 324.7734Q367.88068 324.3646 367.958 323.86743Q368.03534 323.34814 367.73703 322.71838ZM364.091 323.9558L366.5438 321.50302Q365.93613 320.98373 365.4279 320.93954Q364.6324 320.87326 364.0689 321.43674Q363.54965 321.95602 363.53857 322.65207Q363.53857 323.3371 364.091 323.9558ZM372.6868 317.76862L373.54858 317.08362Q374.04575 317.93436 373.92422 318.8072Q373.80267 319.68002 373.04034 320.44238Q372.0791 321.4036 370.90796 321.3815Q369.74786 321.34836 368.67615 320.27664Q367.57132 319.17178 367.53815 317.9896Q367.49396 316.79636 368.39996 315.89038Q369.28384 315.0065 370.4329 315.0507Q371.593 315.08383 372.6868 316.17764Q372.75308 316.24393 372.88565 316.3765L369.60425 319.65793Q370.37762 320.34293 371.12894 320.36502Q371.8692 320.37607 372.42163 319.82364Q372.8304 319.41486 372.90775 318.91766Q372.9851 318.39838 372.6868 317.76862ZM369.04077 319.00607L371.49353 316.55328Q370.88586 316.034 370.37762 315.9898Q369.58215 315.92352 369.01868 316.487Q368.4994 317.0063 368.48834 317.70233Q368.48834 318.38733 369.04077 319.00607ZM378.89606 314.38776L378.34363 313.83533Q378.57565 314.90704 377.7691 315.7136Q377.23877 316.24393 376.50958 316.3986Q375.76932 316.54224 375.007 316.26602Q374.24463 315.9898 373.57068 315.31586Q372.9188 314.66397 372.5984 313.90164Q372.27798 313.13928 372.44373 312.42114Q372.5984 311.69193 373.13977 311.15054Q373.5375 310.7528 374.0126 310.60916Q374.4877 310.46555 374.95172 310.53183L372.77518 308.35526L373.5154 307.61502L379.59213 313.6917L378.89606 314.38776ZM374.34406 314.54245Q375.1948 315.3932 375.9682 315.45947Q376.73056 315.5147 377.21667 315.0286Q377.70282 314.54245 377.64758 313.8022Q377.59235 313.06195 376.77475 312.24435Q375.86877 311.33838 375.09537 311.2721Q374.333 311.19473 373.82477 311.70297Q373.3276 312.20016 373.40494 312.9404Q373.47122 313.66962 374.34406 314.54245ZM380.9732 312.31064L374.89648 306.23395L375.6478 305.48264L381.7245 311.55936L380.9732 312.31064ZM384.7076 305.7478L385.5694 305.0628Q386.06656 305.91354 385.94504 306.78638Q385.8235 307.6592 385.06116 308.42157Q384.0999 309.38278 382.92877 309.3607Q381.76868 309.32755 380.697 308.25583Q379.59213 307.15097 379.559 305.96878Q379.51477 304.77554 380.42078 303.86957Q381.30466 302.9857 382.4537 303.02988Q383.6138 303.06302 384.7076 304.15683Q384.7739 304.2231 384.90646 304.35568L381.62506 307.63712Q382.39847 308.3221 383.14975 308.3442Q383.89 308.35526 384.44244 307.80283Q384.85123 307.39404 384.92856 306.89685Q385.00592 306.37756 384.7076 305.7478ZM381.06158 306.98523L383.51434 304.53247Q382.90668 304.01318 382.39847 303.969Q381.60297 303.9027 381.0395 304.4662Q380.5202 304.98544 380.50916 305.68152Q380.50916 306.36652 381.06158 306.98523Z" fill-rule="nonzero"/><path fill="#000000" d="M394.0157 345.7988L387.92795 339.71103L388.6019 339.03708L389.16537 339.60056Q389.077 339.02603 389.20956 338.56198Q389.3532 338.0869 389.7841 337.656Q390.34756 337.09253 391.06573 336.9489Q391.78387 336.80527 392.52414 337.12567Q393.27545 337.43503 393.9052 338.06482Q394.57916 338.73877 394.87747 339.52322Q395.18683 340.2966 395.01007 341.0479Q394.83328 341.79922 394.32504 342.30746Q393.9494 342.6831 393.4964 342.82672Q393.03238 342.95932 392.61252 342.91513L394.75595 345.05853L394.0157 345.7988ZM390.82266 341.25784Q391.6734 342.10858 392.4247 342.17487Q393.16495 342.2301 393.6511 341.744Q394.1483 341.2468 394.082 340.4734Q394.0157 339.69998 393.1318 338.8161Q392.2921 337.9764 391.54083 337.91013Q390.77847 337.8328 390.29233 338.31894Q389.81726 338.794 389.8946 339.60056Q389.97192 340.4071 390.82266 341.25784ZM399.60626 335.74463Q399.53998 336.518 399.2969 337.04834Q399.06488 337.56763 398.62292 338.00955Q397.89374 338.73877 397.15347 338.7719Q396.41324 338.80505 395.8608 338.25262Q395.5404 337.93222 395.41885 337.52344Q395.2863 337.10358 395.37466 336.70584Q395.452 336.29703 395.67297 335.9214Q395.81662 335.64517 396.21436 335.13693Q397.00986 334.14258 397.28607 333.557Q397.13138 333.4023 397.09824 333.36917Q396.6342 332.90515 396.23645 332.92725Q395.70612 332.97144 395.14264 333.5349Q394.62335 334.0542 394.55707 334.49612Q394.47974 334.92703 394.82224 335.5126L393.9936 336.14236Q393.629 335.5789 393.57376 335.0596Q393.51852 334.5403 393.79474 333.95474Q394.07092 333.36917 394.6344 332.8057Q395.19788 332.24222 395.68402 332.02127Q396.17017 331.8003 396.53476 331.83344Q396.89935 331.86658 397.27502 332.10965Q397.49597 332.2643 397.99316 332.7615L398.98755 333.7559Q400.0261 334.79443 400.3465 335.02646Q400.67798 335.24744 401.0757 335.3579L400.29126 336.14236Q399.94876 336.02084 399.60626 335.74463ZM397.87164 334.14258Q397.62857 334.7171 396.94357 335.64517Q396.5458 336.1755 396.44638 336.45172Q396.33588 336.7169 396.3801 336.98206Q396.43533 337.23618 396.6342 337.43503Q396.93253 337.73337 397.35236 337.71124Q397.78323 337.6781 398.21414 337.24722Q398.64505 336.8163 398.78867 336.29703Q398.94336 335.76672 398.76657 335.28058Q398.63397 334.90494 398.14786 334.4188L397.87164 334.14258ZM403.18597 331.9218L403.94833 332.4632Q403.6942 332.84988 403.45114 333.09296Q403.04236 333.50177 402.69986 333.6012Q402.34628 333.68958 402.03693 333.5791Q401.73862 333.45758 401.06467 332.7836L398.53455 330.25348L397.99316 330.79486L397.41864 330.22034L397.96002 329.67896L396.8662 328.58517L397.16452 327.40295L398.7003 328.93872L399.45157 328.1874L400.0261 328.76193L399.2748 329.51324L401.84912 332.08755Q402.16953 332.40796 402.29105 332.4632Q402.42365 332.5074 402.56726 332.47424Q402.7109 332.4411 402.87662 332.27536Q403.00922 332.1428 403.18597 331.9218ZM404.34607 332.08755L398.26938 326.01083L399.00964 325.2706L401.1862 327.44717Q401.10886 326.33127 401.90436 325.53577Q402.40155 325.03857 402.95398 324.8839Q403.5064 324.70712 404.00357 324.89496Q404.48972 325.07172 405.14157 325.72357L407.9258 328.5078L407.18555 329.24808L404.40134 326.46384Q403.83786 325.90036 403.34067 325.8893Q402.84348 325.87827 402.40155 326.32022Q402.07007 326.65167 401.94855 327.12674Q401.82703 327.57974 401.99274 328.01062Q402.15848 328.41943 402.67776 328.93872L405.08633 331.3473L404.34607 332.08755ZM409.4726 326.96103L405.6498 323.1382L404.9869 323.80115L404.41238 323.22662L405.0753 322.5637L404.6002 322.08862Q404.15826 321.64667 404.02567 321.3594Q403.83786 320.95062 403.92624 320.50867Q404.02567 320.0557 404.5118 319.56955Q404.8322 319.24915 405.28522 318.95084L405.81555 319.70212Q405.55038 319.901 405.34045 320.11093Q404.99796 320.45343 404.99796 320.7407Q405.009 321.0169 405.40674 321.41464L405.81555 321.82346L406.67734 320.96167L407.25186 321.5362L406.39008 322.39798L410.21286 326.22076L409.4726 326.96103ZM406.20224 319.80157L405.34045 318.9398L406.09177 318.18848L406.95355 319.05026L406.20224 319.80157ZM411.41714 325.01648L407.01984 320.61917L407.77112 319.86786L412.16846 324.26517L411.41714 325.01648ZM413.53848 322.89517L409.14114 318.49783L409.80408 317.83493L410.4228 318.45364Q410.19077 317.24936 411.1078 316.33234Q411.50555 315.93457 411.98062 315.74677Q412.46677 315.54788 412.8645 315.61417Q413.26227 315.68045 413.6379 315.92352Q413.88098 316.1003 414.40027 316.6196L417.10715 319.32648L416.3669 320.06674L413.69315 317.39297Q413.22913 316.92896 412.91974 316.79636Q412.61038 316.6638 412.25684 316.75217Q411.89224 316.8295 411.59393 317.1278Q411.11884 317.6029 411.07465 318.2658Q411.03046 318.90665 411.87015 319.74634L414.27872 322.1549L413.53848 322.89517ZM421.33875 315.09488L420.78632 314.54245Q421.01834 315.61417 420.2118 316.42072Q419.68146 316.95105 418.95227 317.1057Q418.212 317.24936 417.44965 316.97314Q416.68732 316.69693 416.01334 316.02298Q415.36148 315.3711 415.04108 314.60876Q414.72067 313.8464 414.88638 313.12823Q415.04108 312.39905 415.58246 311.85767Q415.9802 311.45993 416.4553 311.31628Q416.9304 311.17267 417.3944 311.23895L415.21786 309.06238L415.9581 308.32214L422.0348 314.39883L421.33875 315.09488ZM416.78674 315.24957Q417.63748 316.1003 418.4109 316.1666Q419.17322 316.22183 419.65936 315.73572Q420.1455 315.24957 420.09027 314.5093Q420.035 313.76907 419.21744 312.95148Q418.31143 312.0455 417.53806 311.9792Q416.7757 311.90186 416.26746 312.4101Q415.77026 312.9073 415.84763 313.64752Q415.9139 314.37674 416.78674 315.24957ZM425.02896 308.57623L425.89075 307.89124Q426.38794 308.74197 426.2664 309.6148Q426.14487 310.48764 425.3825 311.25Q424.4213 312.2112 423.25015 312.18912Q422.09006 312.15598 421.01834 311.08426Q419.91348 309.9794 419.88034 308.7972Q419.83615 307.60397 420.74213 306.698Q421.626 305.81412 422.77505 305.8583Q423.93515 305.89145 425.02896 306.98526Q425.09525 307.05154 425.22784 307.18414L421.9464 310.46555Q422.71982 311.15054 423.4711 311.17267Q424.21136 311.18372 424.7638 310.6313Q425.17258 310.22247 425.24994 309.72528Q425.32727 309.20602 425.02896 308.57623ZM421.38293 309.8137L423.83572 307.3609Q423.22806 306.8416 422.71982 306.79742Q421.92432 306.73114 421.36084 307.29462Q420.84155 307.8139 420.8305 308.50995Q420.8305 309.19498 421.38293 309.8137ZM428.37668 308.05698L423.97934 303.65964L424.65332 302.9857L425.31622 303.6486Q425.1063 302.93045 425.17258 302.57687Q425.2389 302.20123 425.50406 301.93607Q425.8797 301.56042 426.4984 301.40573L426.94037 302.35593Q426.4984 302.4664 426.23325 302.73157Q425.97913 302.9857 425.93494 303.33923Q425.89075 303.6707 426.07858 304.01318Q426.34372 304.54352 426.80777 305.00757L429.1169 307.3167L428.37668 308.05698Z" fill-rule="nonzero"/><path fill="#000000" d="M455.0752 321.8787L455.6939 321.039Q456.20215 321.41464 456.7104 321.37045Q457.22964 321.31522 457.74893 320.79593Q458.25717 320.2877 458.30136 319.84576Q458.34555 319.3817 458.0583 319.09445Q457.80417 318.84033 457.43958 318.91766Q457.18546 318.97293 456.42313 319.4259Q455.3956 320.03357 454.93155 320.21036Q454.46753 320.36502 454.03662 320.2656Q453.60574 320.16617 453.2743 319.83472Q452.98703 319.54745 452.86548 319.16074Q452.74396 318.77405 452.81024 318.37628Q452.86548 318.07797 453.0754 317.69128Q453.28534 317.3046 453.6389 316.95102Q454.14713 316.4428 454.6885 316.2108Q455.22986 315.95667 455.6718 316.02295Q456.11374 316.08923 456.59988 316.4428L455.97012 317.27145Q455.59448 316.9842 455.16357 317.03943Q454.7327 317.07257 454.29074 317.5145Q453.7825 318.02274 453.7383 318.4205Q453.68307 318.8072 453.9151 319.0392Q454.05872 319.18283 454.2576 319.20493Q454.47858 319.22702 454.74374 319.11655Q454.8984 319.05026 455.59448 318.64145Q456.61093 318.06693 457.0529 317.89017Q457.4948 317.71338 457.92572 317.7907Q458.3566 317.86807 458.74332 318.25476Q459.11896 318.6304 459.22943 319.18283Q459.33994 319.71317 459.11896 320.30978Q458.88693 320.89536 458.36765 321.41464Q457.50586 322.27643 456.69934 322.37585Q455.8928 322.45322 455.0752 321.8787ZM461.62698 317.95645L457.22964 313.55914L457.90363 312.88516L458.56653 313.5481Q458.3566 312.82993 458.4229 312.47638Q458.4892 312.1007 458.75436 311.83557Q459.13 311.4599 459.74872 311.30524L460.19067 312.2554Q459.74872 312.36588 459.48355 312.63104Q459.22943 312.88516 459.18524 313.2387Q459.14105 313.5702 459.3289 313.9127Q459.59406 314.44302 460.05807 314.90704L462.36722 317.2162L461.62698 317.95645ZM466.7977 311.70297Q466.7314 312.47638 466.48834 313.0067Q466.25632 313.52597 465.81436 313.96793Q465.08517 314.69714 464.3449 314.7303Q463.60468 314.76343 463.05225 314.211Q462.73184 313.8906 462.6103 313.48178Q462.47772 313.06195 462.5661 312.66418Q462.64343 312.2554 462.8644 311.87976Q463.00806 311.60355 463.4058 311.0953Q464.2013 310.10092 464.4775 309.51535Q464.3228 309.3607 464.28967 309.32755Q463.82562 308.8635 463.4279 308.8856Q462.89755 308.92978 462.33408 309.49326Q461.8148 310.01254 461.7485 310.4545Q461.67117 310.88538 462.01367 311.47095L461.18503 312.1007Q460.82043 311.53726 460.7652 311.01797Q460.70996 310.4987 460.98618 309.91312Q461.2624 309.32755 461.82584 308.76407Q462.3893 308.2006 462.87546 307.9796Q463.3616 307.75864 463.7262 307.79178Q464.0908 307.82495 464.46646 308.068Q464.68744 308.2227 465.1846 308.71988L466.179 309.71423Q467.21753 310.7528 467.53793 310.98483Q467.86942 311.20578 468.26715 311.31628L467.4827 312.1007Q467.1402 311.9792 466.7977 311.70297ZM465.06308 310.10092Q464.82 310.67548 464.135 311.60355Q463.73724 312.13388 463.63782 312.4101Q463.5273 312.67526 463.57153 312.9404Q463.62677 313.19452 463.82562 313.3934Q464.12396 313.6917 464.5438 313.66962Q464.9747 313.63647 465.40558 313.20557Q465.8365 312.7747 465.9801 312.2554Q466.1348 311.72507 465.958 311.23892Q465.8254 310.86328 465.3393 310.37714L465.06308 310.10092ZM472.26672 307.3167L471.7143 306.76428Q471.94632 307.836 471.13977 308.64252Q470.60944 309.17285 469.88025 309.32755Q469.13998 309.47116 468.37762 309.19495Q467.6153 308.91873 466.9413 308.24478Q466.28946 307.59293 465.96906 306.83057Q465.64865 306.0682 465.81436 305.35007Q465.96906 304.62085 466.51044 304.07947Q466.90817 303.68173 467.38327 303.53812Q467.85837 303.39447 468.3224 303.46075L466.14584 301.2842L466.88608 300.54395L472.96277 306.62064L472.26672 307.3167ZM467.71472 307.47137Q468.56546 308.3221 469.33887 308.38843Q470.1012 308.44366 470.58734 307.95752Q471.0735 307.47137 471.01825 306.73114Q470.96298 305.99088 470.14542 305.17328Q469.2394 304.2673 468.46603 304.20102Q467.70367 304.1237 467.19543 304.6319Q466.69827 305.1291 466.7756 305.86935Q466.8419 306.59854 467.71472 307.47137Z" fill-rule="nonzero"/><path fill="#000000" d="M466.40518 353.6985L467.02393 352.8588Q467.53214 353.23444 468.04037 353.19025Q468.55966 353.135 469.07895 352.61572Q469.58716 352.10748 469.63138 351.66556Q469.67557 351.2015 469.3883 350.91425Q469.1342 350.66013 468.7696 350.73746Q468.51547 350.79272 467.7531 351.2457Q466.7256 351.85336 466.26157 352.03015Q465.79752 352.1848 465.36664 352.0854Q464.93573 351.98596 464.60428 351.6545Q464.31702 351.36725 464.1955 350.98053Q464.07394 350.59384 464.14023 350.1961Q464.1955 349.89777 464.4054 349.51108Q464.61533 349.1244 464.96887 348.77084Q465.4771 348.2626 466.0185 348.03058Q466.55988 347.77646 467.0018 347.84274Q467.44376 347.90906 467.9299 348.2626L467.3001 349.09125Q466.92447 348.804 466.4936 348.85922Q466.06268 348.89236 465.62076 349.33432Q465.11252 349.84253 465.06833 350.2403Q465.01306 350.62698 465.2451 350.859Q465.38873 351.00262 465.5876 351.02472Q465.80856 351.04684 466.07373 350.93634Q466.22842 350.87006 466.92447 350.46124Q467.94095 349.88672 468.38287 349.70996Q468.82483 349.53317 469.2557 349.6105Q469.6866 349.68787 470.0733 350.07455Q470.44897 350.4502 470.55945 351.00262Q470.66992 351.53296 470.44897 352.12958Q470.21695 352.71515 469.69766 353.23444Q468.83588 354.09622 468.02933 354.19568Q467.22278 354.273 466.40518 353.6985ZM473.92926 347.47815L474.6916 348.01953Q474.43747 348.40622 474.19443 348.6493Q473.7856 349.0581 473.4431 349.15753Q473.08957 349.2459 472.7802 349.13544Q472.4819 349.0139 471.80792 348.33994L469.2778 345.8098L468.73645 346.3512L468.16193 345.77667L468.70328 345.2353L467.6095 344.14148L467.9078 342.9593L469.44354 344.49506L470.19485 343.74374L470.76938 344.31827L470.01807 345.06958L472.59238 347.6439Q472.91278 347.9643 473.03433 348.01953Q473.1669 348.06372 473.31055 348.03058Q473.45416 347.99744 473.6199 347.8317Q473.75247 347.69913 473.92926 347.47815ZM476.68033 343.22446L477.5421 342.53946Q478.0393 343.3902 477.9178 344.26303Q477.79623 345.13586 477.0339 345.8982Q476.07266 346.85944 474.90152 346.83734Q473.74142 346.8042 472.6697 345.73248Q471.56485 344.62762 471.5317 343.44543Q471.48752 342.2522 472.3935 341.34622Q473.27737 340.4623 474.42642 340.50653Q475.58652 340.53967 476.68033 341.63348Q476.74664 341.69977 476.8792 341.83234L473.5978 345.11377Q474.3712 345.79877 475.1225 345.82086Q475.86273 345.8319 476.41516 345.27948Q476.82397 344.8707 476.9013 344.3735Q476.97864 343.85422 476.68033 343.22446ZM473.03433 344.46188L475.4871 342.00912Q474.87943 341.48984 474.3712 341.44565Q473.57568 341.37936 473.0122 341.94284Q472.49295 342.4621 472.4819 343.15817Q472.4819 343.84317 473.03433 344.46188ZM480.02805 342.70517L475.63074 338.30786L476.3047 337.6339L476.9676 338.2968Q476.7577 337.57864 476.82397 337.2251Q476.89026 336.84946 477.15543 336.5843Q477.53107 336.20865 478.14978 336.05396L478.59174 337.00412Q478.14978 337.11462 477.88464 337.3798Q477.63052 337.6339 477.5863 337.98746Q477.5421 338.3189 477.72995 338.6614Q477.99512 339.19174 478.45917 339.6558L480.7683 341.96494L480.02805 342.70517ZM485.19876 336.4517Q485.13248 337.2251 484.8894 337.75543Q484.65738 338.27472 484.21545 338.71664Q483.48624 339.44586 482.746 339.479Q482.00574 339.51215 481.4533 338.95972Q481.1329 338.6393 481.01135 338.23053Q480.87878 337.81067 480.96716 337.41293Q481.04453 337.00412 481.26547 336.62848Q481.40912 336.35226 481.80685 335.84402Q482.60236 334.84967 482.87857 334.2641Q482.72388 334.1094 482.69073 334.07626Q482.2267 333.6122 481.82895 333.63434Q481.2986 333.67853 480.73517 334.242Q480.21588 334.7613 480.14957 335.20322Q480.07224 335.63412 480.41473 336.2197L479.5861 336.84946Q479.2215 336.28598 479.16626 335.7667Q479.11102 335.2474 479.38724 334.66183Q479.66345 334.07626 480.22693 333.5128Q480.7904 332.9493 481.27652 332.72833Q481.76266 332.5074 482.12726 332.54053Q482.49188 332.57367 482.86752 332.81674Q483.0885 332.9714 483.58566 333.4686L484.58005 334.46295Q485.61862 335.50153 485.93903 335.73355Q486.27048 335.95453 486.6682 336.065L485.8838 336.84946Q485.54126 336.7279 485.19876 336.4517ZM483.46414 334.84967Q483.22107 335.4242 482.53607 336.35226Q482.1383 336.8826 482.03888 337.1588Q481.9284 337.42398 481.9726 337.68915Q482.02783 337.94327 482.2267 338.14212Q482.52502 338.44043 482.94485 338.41833Q483.37576 338.3852 483.80664 337.9543Q484.23755 337.5234 484.38116 337.00412Q484.53586 336.47382 484.35907 335.98767Q484.2265 335.612 483.74036 335.1259L483.46414 334.84967ZM487.81726 334.91595L483.41995 330.51865L484.08286 329.8557L484.70157 330.47446Q484.58005 329.93307 484.73474 329.40274Q484.87836 328.86136 485.3203 328.4194Q485.80643 327.9333 486.31467 327.82278Q486.83395 327.70126 487.3201 327.94434Q487.08807 326.65164 487.91672 325.823Q488.57962 325.1601 489.2867 325.1822Q489.99384 325.1822 490.7562 325.94455L493.77243 328.9608L493.0322 329.70105L490.259 326.92786Q489.81705 326.48593 489.54083 326.36438Q489.27567 326.2318 488.9663 326.2981Q488.65695 326.36438 488.39178 326.62955Q487.92776 327.0936 487.92776 327.7123Q487.9388 328.31998 488.6238 329.00497L491.17603 331.5572L490.4247 332.3085L487.56314 329.44693Q487.06598 328.94974 486.63507 328.8945Q486.2042 328.81717 485.79538 329.22595Q485.47498 329.54636 485.37555 329.97726Q485.2761 330.40814 485.47498 330.8501Q485.67386 331.29202 486.27048 331.88864L488.55753 334.1757L487.81726 334.91595ZM496.5898 329.52426L496.04843 328.98288L500.99817 324.03314L501.53955 324.57452L496.5898 329.52426ZM501.5064 319.90097L502.26877 320.44235Q502.01465 320.82907 501.77158 321.07214Q501.3628 321.48093 501.0203 321.58035Q500.66672 321.66876 500.35736 321.55826Q500.05905 321.43674 499.3851 320.7628L496.85498 318.23267L496.3136 318.77405L495.73907 318.19952L496.28046 317.65814L495.18665 316.56433L495.48495 315.38214L497.02072 316.91788L497.772 316.16656L498.34653 316.7411L497.59525 317.4924L500.16956 320.0667Q500.48996 320.38712 500.61148 320.44235Q500.74408 320.48657 500.8877 320.4534Q501.03134 320.42026 501.19705 320.25455Q501.32965 320.12195 501.5064 319.90097ZM502.65546 320.07776L498.25815 315.68045L498.9321 315.00647L499.59503 315.6694Q499.3851 314.95123 499.4514 314.5977Q499.51767 314.22205 499.78284 313.95688Q500.1585 313.5812 500.77722 313.42654L501.21915 314.3767Q500.77722 314.4872 500.51205 314.75235Q500.25793 315.00647 500.21375 315.36005Q500.16956 315.6915 500.35736 316.034Q500.62253 316.56433 501.08658 317.02835L503.39572 319.33752L502.65546 320.07776ZM500.28003 312.02338L499.41824 311.1616L500.16956 310.41028L501.03134 311.27206L500.28003 312.02338ZM505.49493 317.23828L501.09763 312.84097L501.8489 312.08966L506.24625 316.487L505.49493 317.23828ZM509.9475 311.70297Q509.88123 312.47638 509.63815 313.00668Q509.40613 313.52597 508.96417 313.96793Q508.235 314.6971 507.49472 314.73026Q506.7545 314.76343 506.20206 314.211Q505.88165 313.89056 505.7601 313.48178Q505.62753 313.06195 505.7159 312.66418Q505.79324 312.2554 506.01422 311.87973Q506.15787 311.60352 506.5556 311.0953Q507.3511 310.10092 507.62732 309.51535Q507.47263 309.3607 507.43948 309.3275Q506.97543 308.8635 506.5777 308.8856Q506.04736 308.92978 505.4839 309.49326Q504.9646 310.01254 504.89832 310.45447Q504.82098 310.88538 505.16348 311.47095L504.33484 312.1007Q503.97025 311.53723 503.915 311.01794Q503.85974 310.4987 504.13596 309.91312Q504.41217 309.3275 504.97565 308.76407Q505.53912 308.2006 506.02527 307.9796Q506.5114 307.75864 506.876 307.79178Q507.2406 307.82492 507.61627 308.068Q507.83722 308.2227 508.3344 308.71985L509.3288 309.71423Q510.36734 310.75278 510.68774 310.9848Q511.01923 311.20578 511.41696 311.31625L510.6325 312.1007Q510.29 311.9792 509.9475 311.70297ZM508.2129 310.10092Q507.96982 310.67545 507.2848 311.60352Q506.88705 312.13385 506.78763 312.41006Q506.67712 312.67523 506.7213 312.9404Q506.77658 313.19452 506.97543 313.3934Q507.27374 313.6917 507.6936 313.66962Q508.12448 313.63647 508.5554 313.20557Q508.98627 312.7747 509.1299 312.2554Q509.28458 311.72507 509.10782 311.23892Q508.97522 310.86328 508.4891 310.37714L508.2129 310.10092ZM515.4165 307.31668L514.8641 306.76428Q515.0961 307.83597 514.28955 308.64252Q513.7593 309.17285 513.03 309.3275Q512.2898 309.47116 511.52744 309.19495Q510.7651 308.91873 510.09113 308.24478Q509.43927 307.5929 509.11887 306.83057Q508.79846 306.0682 508.96417 305.35007Q509.11887 304.62085 509.66025 304.07947Q510.05798 303.68173 510.53308 303.5381Q511.00815 303.39447 511.4722 303.46075L509.29562 301.28418L510.0359 300.54395L516.1126 306.62064L515.4165 307.31668ZM510.86453 307.47137Q511.71527 308.3221 512.48865 308.3884Q513.25104 308.44363 513.7372 307.95752Q514.22327 307.47137 514.168 306.7311Q514.1128 305.99088 513.2952 305.17328Q512.3892 304.2673 511.61584 304.20102Q510.8535 304.12366 510.34525 304.6319Q509.84805 305.1291 509.9254 305.86932Q509.9917 306.59854 510.86453 307.47137Z" fill-rule="nonzero"/><path fill="#000000" d="M549.56177 315.23853Q549.4955 316.0119 549.2524 316.54224Q549.0204 317.06152 548.5784 317.50348Q547.84924 318.23267 547.10895 318.2658Q546.3687 318.29895 545.8163 317.74652Q545.4959 317.42612 545.3743 317.01733Q545.24176 316.59747 545.33014 316.19974Q545.40753 315.79095 545.6285 315.41528Q545.7721 315.13907 546.16986 314.63083Q546.96533 313.63647 547.2416 313.0509Q547.08685 312.8962 547.0537 312.86307Q546.5897 312.39905 546.19196 312.42114Q545.6616 312.46533 545.09814 313.0288Q544.57886 313.5481 544.5126 313.99002Q544.43524 314.42093 544.7777 315.0065L543.9491 315.63626Q543.5845 315.07278 543.52924 314.5535Q543.474 314.0342 543.75024 313.44864Q544.0264 312.86307 544.5899 312.2996Q545.1534 311.7361 545.6395 311.51517Q546.1257 311.2942 546.49023 311.32733Q546.85486 311.36047 547.2305 311.60355Q547.4515 311.7582 547.94867 312.2554L548.94305 313.2498Q549.9816 314.28833 550.302 314.52036Q550.6335 314.74133 551.0312 314.8518L550.24677 315.63626Q549.90424 315.51474 549.56177 315.23853ZM547.82715 313.63647Q547.58405 314.211 546.89905 315.13907Q546.5013 315.6694 546.40186 315.94562Q546.2914 316.2108 546.3356 316.47595Q546.3908 316.73007 546.5897 316.92892Q546.888 317.22726 547.30786 317.20514Q547.7388 317.172 548.1696 316.74112Q548.6005 316.3102 548.74414 315.79095Q548.89886 315.26062 548.72205 314.77448Q548.5895 314.39883 548.10333 313.9127L547.82715 313.63647ZM553.39557 312.48743L547.32996 309.75842L548.1144 308.974L551.69415 310.65338Q552.2687 310.94064 552.85425 311.26105Q552.61115 310.8191 552.3018 310.1562L550.60034 306.48807L551.3627 305.7257L554.0917 311.79138L553.39557 312.48743ZM555.93677 310.67548L556.7764 310.05673Q557.1521 310.344 557.5167 310.28876Q558.00287 310.22247 558.4779 309.74738Q558.9972 309.22812 559.0635 308.74197Q559.14087 308.24478 558.8757 307.78073Q558.70996 307.48242 557.96967 306.76428Q558.0581 307.82495 557.32886 308.55414Q556.4229 309.4601 555.27386 309.30545Q554.1138 309.1397 553.20776 308.23373Q552.578 307.60397 552.2687 306.85266Q551.9593 306.07928 552.1029 305.3611Q552.2465 304.64294 552.83215 304.05737Q553.6166 303.27295 554.7546 303.39447L554.22424 302.86414L554.90924 302.17914L558.70996 305.97983Q559.7375 307.00735 559.95844 307.64816Q560.1794 308.28897 559.9695 308.98505Q559.7706 309.69214 559.10767 310.35504Q558.32324 311.1395 557.4836 311.2721Q556.64386 311.40466 555.93677 310.67548ZM553.91486 307.41614Q554.7767 308.27792 555.5169 308.33316Q556.25714 308.38843 556.7764 307.86914Q557.2957 307.34985 557.2405 306.6096Q557.1963 305.8583 556.3566 305.01862Q555.55005 304.21207 554.7767 304.16788Q554.01434 304.11264 553.5061 304.62085Q553.0089 305.11804 553.06415 305.8804Q553.1194 306.62064 553.91486 307.41614Z" fill-rule="nonzero"/><path fill="#4285f4" d="M210.0 20.55C210.0 19.997715 210.44771 19.55 211.0 19.55L221.0 19.55C221.55229 19.55 222.0 19.997715 222.0 20.55L222.0 30.55C222.0 31.102285 221.55229 31.55 221.0 31.55L211.0 31.55C210.44771 31.55 210.0 31.102285 210.0 30.55Z" fill-rule="nonzero"/><path fill="#1a1a1a" d="M230.79688 31.940624L230.79688 23.33125L231.75 23.33125L231.75 24.128124Q232.09375 23.659374 232.51562 23.425Q232.95312 23.190624 233.5625 23.190624Q234.35938 23.190624 234.96875 23.596874Q235.57812 24.003124 235.875 24.753124Q236.1875 25.503124 236.1875 26.39375Q236.1875 27.346874 235.84375 28.1125Q235.51562 28.878124 234.85938 29.284374Q234.20312 29.690624 233.48438 29.690624Q232.95312 29.690624 232.53125 29.471874Q232.10938 29.2375 231.84375 28.909374L231.84375 31.940624L230.79688 31.940624ZM231.75 26.471874Q231.75 27.675 232.23438 28.253124Q232.71875 28.815624 233.40625 28.815624Q234.10938 28.815624 234.60938 28.221874Q235.10938 27.628124 235.10938 26.378124Q235.10938 25.190624 234.625 24.6125Q234.14062 24.01875 233.45312 24.01875Q232.78125 24.01875 232.26562 24.64375Q231.75 25.26875 231.75 26.471874ZM242.04688 27.55L243.14062 27.675Q242.89062 28.628124 242.1875 29.159374Q241.48438 29.690624 240.40625 29.690624Q239.04688 29.690624 238.23438 28.846874Q237.4375 28.003124 237.4375 26.4875Q237.4375 24.925 238.25 24.065624Q239.0625 23.190624 240.34375 23.190624Q241.59375 23.190624 242.375 24.034374Q243.17188 24.878124 243.17188 26.425Q243.17188 26.51875 243.17188 26.70625L238.53125 26.70625Q238.59375 27.7375 239.10938 28.284374Q239.625 28.815624 240.40625 28.815624Q240.98438 28.815624 241.39062 28.51875Q241.8125 28.20625 242.04688 27.55ZM238.59375 25.846874L242.0625 25.846874Q242.0 25.05 241.67188 24.659374Q241.15625 24.05 240.35938 24.05Q239.625 24.05 239.125 24.534374Q238.64062 25.01875 238.59375 25.846874ZM244.78125 29.55L244.78125 23.33125L245.73438 23.33125L245.73438 24.26875Q246.09375 23.6125 246.39062 23.409374Q246.70312 23.190624 247.07812 23.190624Q247.60938 23.190624 248.15625 23.51875L247.79688 24.503124Q247.40625 24.26875 247.03125 24.26875Q246.67188 24.26875 246.39062 24.4875Q246.125 24.690624 246.01562 25.065624Q245.82812 25.628124 245.82812 26.284374L245.82812 29.55L244.78125 29.55ZM247.8125 31.940624L247.8125 31.175L254.8125 31.175L254.8125 31.940624L247.8125 31.940624ZM258.09375 28.6125L258.25 29.534374Q257.79688 29.628124 257.45312 29.628124Q256.875 29.628124 256.5625 29.45625Q256.25 29.26875 256.10938 28.971874Q255.98438 28.675 255.98438 27.721874L255.98438 24.14375L255.21875 24.14375L255.21875 23.33125L255.98438 23.33125L255.98438 21.784374L257.03125 21.159374L257.03125 23.33125L258.09375 23.33125L258.09375 24.14375L257.03125 24.14375L257.03125 27.784374Q257.03125 28.2375 257.07812 28.3625Q257.14062 28.4875 257.26562 28.565624Q257.39062 28.64375 257.625 28.64375Q257.8125 28.64375 258.09375 28.6125ZM258.76562 29.55L258.76562 20.95625L259.82812 20.95625L259.82812 29.55L258.76562 29.55ZM262.76562 29.55L261.78125 29.55L261.78125 20.95625L262.84375 20.95625L262.84375 24.01875Q263.51562 23.190624 264.54688 23.190624Q265.125 23.190624 265.625 23.425Q266.14062 23.64375 266.46875 24.065624Q266.8125 24.4875 267.0 25.08125Q267.1875 25.675 267.1875 26.346874Q267.1875 27.940624 266.39062 28.815624Q265.59375 29.690624 264.5 29.690624Q263.39062 29.690624 262.76562 28.76875L262.76562 29.55ZM262.75 26.39375Q262.75 27.503124 263.0625 28.003124Q263.5625 28.815624 264.40625 28.815624Q265.09375 28.815624 265.59375 28.221874Q266.10938 27.628124 266.10938 26.425Q266.10938 25.20625 265.625 24.628124Q265.14062 24.05 264.45312 24.05Q263.76562 24.05 263.25 24.659374Q262.75 25.253124 262.75 26.39375ZM267.8125 31.940624L267.8125 31.175L274.8125 31.175L274.8125 31.940624L267.8125 31.940624ZM280.04688 27.55L281.14062 27.675Q280.89062 28.628124 280.1875 29.159374Q279.48438 29.690624 278.40625 29.690624Q277.04688 29.690624 276.23438 28.846874Q275.4375 28.003124 275.4375 26.4875Q275.4375 24.925 276.25 24.065624Q277.0625 23.190624 278.34375 23.190624Q279.59375 23.190624 280.375 24.034374Q281.17188 24.878124 281.17188 26.425Q281.17188 26.51875 281.17188 26.70625L276.53125 26.70625Q276.59375 27.7375 277.10938 28.284374Q277.625 28.815624 278.40625 28.815624Q278.98438 28.815624 279.39062 28.51875Q279.8125 28.20625 280.04688 27.55ZM276.59375 25.846874L280.0625 25.846874Q280.0 25.05 279.67188 24.659374Q279.15625 24.05 278.35938 24.05Q277.625 24.05 277.125 24.534374Q276.64062 25.01875 276.59375 25.846874ZM282.79688 29.55L282.79688 23.33125L283.73438 23.33125L283.73438 24.20625Q284.42188 23.190624 285.71875 23.190624Q286.28125 23.190624 286.75 23.39375Q287.23438 23.596874 287.46875 23.925Q287.70312 24.253124 287.79688 24.690624Q287.84375 24.9875 287.84375 25.721874L287.84375 29.55L286.79688 29.55L286.79688 25.76875Q286.79688 25.1125 286.67188 24.8Q286.54688 24.4875 286.23438 24.3Q285.92188 24.096874 285.5 24.096874Q284.82812 24.096874 284.32812 24.534374Q283.84375 24.95625 283.84375 26.14375L283.84375 29.55L282.79688 29.55ZM292.09375 28.6125L292.25 29.534374Q291.79688 29.628124 291.45312 29.628124Q290.875 29.628124 290.5625 29.45625Q290.25 29.26875 290.10938 28.971874Q289.98438 28.675 289.98438 27.721874L289.98438 24.14375L289.21875 24.14375L289.21875 23.33125L289.98438 23.33125L289.98438 21.784374L291.03125 21.159374L291.03125 23.33125L292.09375 23.33125L292.09375 24.14375L291.03125 24.14375L291.03125 27.784374Q291.03125 28.2375 291.07812 28.3625Q291.14062 28.4875 291.26562 28.565624Q291.39062 28.64375 291.625 28.64375Q291.8125 28.64375 292.09375 28.6125ZM292.78125 29.55L292.78125 23.33125L293.73438 23.33125L293.73438 24.26875Q294.09375 23.6125 294.39062 23.409374Q294.70312 23.190624 295.07812 23.190624Q295.60938 23.190624 296.15625 23.51875L295.79688 24.503124Q295.40625 24.26875 295.03125 24.26875Q294.67188 24.26875 294.39062 24.4875Q294.125 24.690624 294.01562 25.065624Q293.82812 25.628124 293.82812 26.284374L293.82812 29.55L292.78125 29.55ZM296.75 31.940624L296.625 30.95625Q296.96875 31.05 297.23438 31.05Q297.57812 31.05 297.78125 30.925Q298.0 30.815624 298.14062 30.6125Q298.23438 30.440624 298.46875 29.815624Q298.48438 29.7375 298.5625 29.565624L296.1875 23.33125L297.32812 23.33125L298.625 26.925Q298.875 27.6125 299.07812 28.378124Q299.26562 27.64375 299.51562 26.95625L300.84375 23.33125L301.89062 23.33125L299.53125 29.659374Q299.14062 30.675 298.9375 31.065624Q298.65625 31.596874 298.28125 31.83125Q297.92188 32.08125 297.42188 32.08125Q297.125 32.08125 296.75 31.940624Z" fill-rule="nonzero"/><path fill="#ea4335" d="M317.0 20.55C317.0 19.997715 317.44772 19.55 318.0 19.55L328.0 19.55C328.55228 19.55 329.0 19.997715 329.0 20.55L329.0 30.55C329.0 31.102285 328.55228 31.55 328.0 31.55L318.0 31.55C317.44772 31.55 317.0 31.102285 317.0 30.55Z" fill-rule="nonzero"/><path fill="#1a1a1a" d="M338.9375 29.55L337.03125 23.33125L338.125 23.33125L339.10938 26.925L339.48438 28.253124Q339.51562 28.159374 339.8125 26.971874L340.79688 23.33125L341.875 23.33125L342.8125 26.940624L343.125 28.128124L343.48438 26.925L344.54688 23.33125L345.57812 23.33125L343.625 29.55L342.53125 29.55L341.54688 25.815624L341.29688 24.76875L340.04688 29.55L338.9375 29.55ZM346.79688 29.55L346.79688 20.95625L347.84375 20.95625L347.84375 24.034374Q348.57812 23.190624 349.70312 23.190624Q350.40625 23.190624 350.90625 23.471874Q351.42188 23.7375 351.64062 24.221874Q351.85938 24.690624 351.85938 25.6125L351.85938 29.55L350.8125 29.55L350.8125 25.6125Q350.8125 24.815624 350.46875 24.45625Q350.125 24.096874 349.5 24.096874Q349.03125 24.096874 348.60938 24.346874Q348.20312 24.58125 348.01562 25.003124Q347.84375 25.409374 347.84375 26.14375L347.84375 29.55L346.79688 29.55ZM353.40625 26.440624Q353.40625 24.70625 354.35938 23.878124Q355.15625 23.190624 356.3125 23.190624Q357.59375 23.190624 358.40625 24.034374Q359.23438 24.8625 359.23438 26.346874Q359.23438 27.55 358.875 28.2375Q358.51562 28.925 357.8125 29.315624Q357.125 29.690624 356.3125 29.690624Q355.01562 29.690624 354.20312 28.8625Q353.40625 28.01875 353.40625 26.440624ZM354.48438 26.440624Q354.48438 27.628124 355.0 28.221874Q355.53125 28.815624 356.3125 28.815624Q357.10938 28.815624 357.625 28.221874Q358.14062 27.628124 358.14062 26.409374Q358.14062 25.253124 357.60938 24.659374Q357.09375 24.065624 356.3125 24.065624Q355.53125 24.065624 355.0 24.659374Q354.48438 25.2375 354.48438 26.440624ZM360.76562 29.55L360.76562 20.95625L361.82812 20.95625L361.82812 29.55L360.76562 29.55ZM368.04688 27.55L369.14062 27.675Q368.89062 28.628124 368.1875 29.159374Q367.48438 29.690624 366.40625 29.690624Q365.04688 29.690624 364.23438 28.846874Q363.4375 28.003124 363.4375 26.4875Q363.4375 24.925 364.25 24.065624Q365.0625 23.190624 366.34375 23.190624Q367.59375 23.190624 368.375 24.034374Q369.17188 24.878124 369.17188 26.425Q369.17188 26.51875 369.17188 26.70625L364.53125 26.70625Q364.59375 27.7375 365.10938 28.284374Q365.625 28.815624 366.40625 28.815624Q366.98438 28.815624 367.39062 28.51875Q367.8125 28.20625 368.04688 27.55ZM364.59375 25.846874L368.0625 25.846874Q368.0 25.05 367.67188 24.659374Q367.15625 24.05 366.35938 24.05Q365.625 24.05 365.125 24.534374Q364.64062 25.01875 364.59375 25.846874ZM369.8125 31.940624L369.8125 31.175L376.8125 31.175L376.8125 31.940624L369.8125 31.940624ZM380.09375 28.6125L380.25 29.534374Q379.79688 29.628124 379.45312 29.628124Q378.875 29.628124 378.5625 29.45625Q378.25 29.26875 378.10938 28.971874Q377.98438 28.675 377.98438 27.721874L377.98438 24.14375L377.21875 24.14375L377.21875 23.33125L377.98438 23.33125L377.98438 21.784374L379.03125 21.159374L379.03125 23.33125L380.09375 23.33125L380.09375 24.14375L379.03125 24.14375L379.03125 27.784374Q379.03125 28.2375 379.07812 28.3625Q379.14062 28.4875 379.26562 28.565624Q379.39062 28.64375 379.625 28.64375Q379.8125 28.64375 380.09375 28.6125ZM380.76562 29.55L380.76562 20.95625L381.82812 20.95625L381.82812 29.55L380.76562 29.55ZM384.76562 29.55L383.78125 29.55L383.78125 20.95625L384.84375 20.95625L384.84375 24.01875Q385.51562 23.190624 386.54688 23.190624Q387.125 23.190624 387.625 23.425Q388.14062 23.64375 388.46875 24.065624Q388.8125 24.4875 389.0 25.08125Q389.1875 25.675 389.1875 26.346874Q389.1875 27.940624 388.39062 28.815624Q387.59375 29.690624 386.5 29.690624Q385.39062 29.690624 384.76562 28.76875L384.76562 29.55ZM384.75 26.39375Q384.75 27.503124 385.0625 28.003124Q385.5625 28.815624 386.40625 28.815624Q387.09375 28.815624 387.59375 28.221874Q388.10938 27.628124 388.10938 26.425Q388.10938 25.20625 387.625 24.628124Q387.14062 24.05 386.45312 24.05Q385.76562 24.05 385.25 24.659374Q384.75 25.253124 384.75 26.39375Z" fill-rule="nonzero"/></svg>